<svg width="630" height="564" viewBox="0 0 630 564" fill="none" xmlns="http://www.w3.org/2000/svg">
<path d="M555.541 563.156C535.358 563.156 517.902 555.928 503.174 541.472C488.718 526.744 481.491 509.289 481.491 489.106C481.491 468.377 488.718 450.785 503.174 436.33C517.902 421.602 535.358 414.237 555.541 414.237C576.269 414.237 593.861 421.602 608.317 436.33C622.772 450.785 630 468.377 630 489.106C630 509.289 622.772 526.744 608.317 541.472C593.861 555.928 576.269 563.156 555.541 563.156Z" fill="white"/>
<path d="M279.017 553.337V498.924C276.562 504.379 270.289 512.289 260.198 522.653C250.379 533.017 237.287 542.427 220.923 550.882C204.558 559.064 185.466 563.155 163.646 563.155C130.917 563.155 102.279 555.246 77.7321 539.427C53.1851 523.335 34.093 501.924 20.4558 475.195C6.8186 448.194 0 418.328 0 385.599C0 352.87 6.8186 323.141 20.4558 296.412C34.093 269.41 53.1851 247.863 77.7321 231.771C102.279 215.679 130.917 207.633 163.646 207.633C184.648 207.633 203.058 211.043 218.877 217.861C234.696 224.407 247.515 232.317 257.334 241.59C267.153 250.591 273.971 258.909 277.79 266.546V217.452H401.343V553.337H279.017ZM121.917 385.599C121.917 400.873 125.462 414.646 132.554 426.92C139.645 438.92 149.055 448.33 160.783 455.149C172.783 461.967 186.011 465.377 200.467 465.377C215.468 465.377 228.696 461.967 240.151 455.149C251.606 448.33 260.607 438.92 267.153 426.92C273.971 414.646 277.381 400.873 277.381 385.599C277.381 370.325 273.971 356.688 267.153 344.687C260.607 332.414 251.606 322.868 240.151 316.049C228.696 308.958 215.468 305.412 200.467 305.412C186.011 305.412 172.783 308.958 160.783 316.049C149.055 322.868 139.645 332.414 132.554 344.687C125.462 356.688 121.917 370.325 121.917 385.599Z" fill="white"/>
<circle cx="338.076" cy="73.582" r="73.582" fill="#004AAD"/>
</svg>