<svg width="900" height="900" viewBox="0 0 900 900" fill="none" xmlns="http://www.w3.org/2000/svg">
<path d="M509.271 427.594C516.148 427.594 522.431 428.188 528.119 429.377C533.808 430.48 538.562 431.754 542.383 433.197C546.289 434.641 548.793 435.829 549.897 436.763L537.289 459.56C535.676 458.371 532.662 456.843 528.247 454.975C523.917 453.107 519.077 452.173 513.728 452.173C509.653 452.173 506.214 452.81 503.412 454.084C500.61 455.272 499.209 457.183 499.209 459.815C499.209 462.447 500.738 464.569 503.794 466.182C506.936 467.711 511.436 469.069 517.294 470.258C522.388 471.277 527.567 472.89 532.831 475.097C538.096 477.305 542.468 480.574 545.949 484.904C549.515 489.149 551.298 494.838 551.298 501.97C551.298 509.271 549.727 515.299 546.586 520.054C543.444 524.809 539.284 528.502 534.105 531.134C528.926 533.766 523.322 535.592 517.294 536.61C511.266 537.714 505.407 538.266 499.719 538.266C491.738 538.266 484.776 537.544 478.832 536.101C472.974 534.658 468.219 533.002 464.569 531.134C460.918 529.266 458.371 527.78 456.927 526.677L469.408 501.205C471.616 503.073 475.224 505.196 480.233 507.573C485.243 509.866 490.549 511.012 496.153 511.012C501.587 511.012 505.789 510.205 508.761 508.592C511.733 506.979 513.219 504.856 513.219 502.224C513.219 500.102 512.497 498.404 511.054 497.13C509.61 495.856 507.572 494.753 504.94 493.819C502.308 492.885 499.125 492.036 495.389 491.272C491.993 490.592 488.384 489.531 484.563 488.088C480.743 486.644 477.134 484.692 473.738 482.229C470.342 479.682 467.583 476.498 465.46 472.678C463.337 468.857 462.276 464.23 462.276 458.796C462.276 451.834 464.526 446.06 469.026 441.475C473.526 436.891 479.342 433.452 486.474 431.16C493.606 428.782 501.205 427.594 509.271 427.594Z" fill="black"/>
<path d="M358.76 625H320.426V430.65H359.142V445.933C360.33 443.556 362.58 440.966 365.892 438.164C369.288 435.277 373.575 432.815 378.755 430.777C384.019 428.655 389.962 427.594 396.584 427.594C406.773 427.594 415.476 430.098 422.692 435.108C429.994 440.117 435.598 446.824 439.503 455.23C443.409 463.55 445.362 472.805 445.362 482.993C445.362 493.182 443.282 502.479 439.121 510.884C434.961 519.205 429.103 525.87 421.546 530.879C414.075 535.804 405.245 538.266 395.056 538.266C387.754 538.266 381.514 536.992 376.335 534.445C371.241 531.813 367.208 528.927 364.236 525.785C361.349 522.559 359.524 520.054 358.76 518.271V625ZM407.537 482.993C407.537 478.239 406.476 473.994 404.353 470.258C402.231 466.437 399.344 463.466 395.693 461.343C392.127 459.135 388.094 458.032 383.594 458.032C378.924 458.032 374.722 459.135 370.986 461.343C367.335 463.466 364.448 466.437 362.326 470.258C360.203 473.994 359.142 478.239 359.142 482.993C359.142 487.748 360.203 492.036 362.326 495.856C364.448 499.592 367.335 502.521 370.986 504.644C374.722 506.767 378.924 507.828 383.594 507.828C388.094 507.828 392.127 506.767 395.693 504.644C399.344 502.521 402.231 499.592 404.353 495.856C406.476 492.036 407.537 487.748 407.537 482.993Z" fill="black"/>
<path d="M217.036 625H178.702V428.818H217.418V444.1C218.607 441.723 220.857 439.134 224.168 436.332C227.564 433.445 231.852 430.983 237.031 428.945C242.295 426.822 248.239 425.761 254.861 425.761C265.05 425.761 273.752 428.266 280.969 433.275C288.271 438.284 293.874 444.992 297.78 453.397C301.686 461.718 303.638 470.973 303.638 481.161C303.638 491.349 301.558 500.646 297.398 509.052C293.238 517.373 287.379 524.038 279.823 529.047C272.351 533.971 263.521 536.434 253.333 536.434C246.031 536.434 239.791 535.16 234.611 532.613C229.517 529.981 225.484 527.094 222.513 523.953C219.626 520.726 217.8 518.222 217.036 516.439V625ZM265.814 481.161C265.814 476.406 264.752 472.161 262.63 468.425C260.507 464.605 257.62 461.633 253.97 459.51C250.404 457.303 246.371 456.199 241.871 456.199C237.201 456.199 232.998 457.303 229.263 459.51C225.612 461.633 222.725 464.605 220.602 468.425C218.48 472.161 217.418 476.406 217.418 481.161C217.418 485.916 218.48 490.203 220.602 494.024C222.725 497.76 225.612 500.689 229.263 502.812C232.998 504.934 237.201 505.995 241.871 505.995C246.371 505.995 250.404 504.934 253.97 502.812C257.62 500.689 260.507 497.76 262.63 494.024C264.752 490.203 265.814 485.916 265.814 481.161Z" fill="black"/>
<path d="M118.857 535.209V518.271C118.093 519.969 116.14 522.431 112.998 525.658C109.942 528.884 105.867 531.813 100.772 534.445C95.678 536.992 89.7347 538.266 82.9424 538.266C72.7539 538.266 63.839 535.804 56.1976 530.879C48.5563 525.87 42.613 519.205 38.3678 510.884C34.1226 502.479 32 493.182 32 482.993C32 472.805 34.1226 463.55 38.3678 455.23C42.613 446.824 48.5563 440.117 56.1976 435.108C63.839 430.098 72.7539 427.594 82.9424 427.594C89.48 427.594 95.211 428.655 100.135 430.777C105.06 432.815 109.05 435.277 112.107 438.164C115.163 440.966 117.286 443.556 118.475 445.933V430.65H156.936V535.209H118.857ZM69.9521 482.993C69.9521 487.748 71.0558 492.036 73.2634 495.856C75.4709 499.592 78.4 502.521 82.0509 504.644C85.7867 506.767 89.9045 507.828 94.4045 507.828C99.0742 507.828 103.192 506.767 106.758 504.644C110.324 502.521 113.126 499.592 115.163 495.856C117.286 492.036 118.347 487.748 118.347 482.993C118.347 478.239 117.286 473.994 115.163 470.258C113.126 466.437 110.324 463.466 106.758 461.343C103.192 459.135 99.0742 458.032 94.4045 458.032C89.9045 458.032 85.7867 459.135 82.0509 461.343C78.4 463.466 75.4709 466.437 73.2634 470.258C71.0558 473.994 69.9521 478.239 69.9521 482.993Z" fill="black"/>
<path d="M774.779 497.455L750.896 430.149L750.542 429.15H749.482H710.893H708.641L709.509 431.228L752.94 535.183L729.014 587.566L728.045 589.69H730.379H769.095H770.06L770.46 588.812L842.289 431.272L843.256 429.15H840.924H802.972H801.954L801.578 430.096L774.779 497.455Z" fill="#F0F0F0" stroke="black" stroke-width="3"/>
<path d="M580.103 536.709V535.209V359.968V358.468H581.603H620.319H621.819V359.968V440.472C622.76 439.34 623.886 438.198 625.178 437.045L580.103 536.709ZM580.103 536.709H581.603H619.937H621.437V535.209V523.214M580.103 536.709L621.437 523.214M621.437 523.214C622.935 525.102 624.741 526.97 626.841 528.821L626.856 528.833L626.87 528.846C630.655 532.015 635.083 534.597 640.137 536.601C645.331 538.713 650.828 539.766 656.615 539.766C667.056 539.766 676.182 537.239 683.931 532.132L683.941 532.125C691.638 526.964 697.585 520.094 701.773 511.544L701.776 511.539C705.959 502.911 708.039 493.388 708.039 482.993C708.039 472.601 705.959 463.119 701.775 454.574C697.588 445.94 691.642 439.025 683.941 433.862C676.19 428.665 667.061 426.094 656.615 426.094C649.835 426.094 643.699 427.18 638.231 429.384C632.935 431.468 628.568 434.013 625.179 437.045L621.437 523.214ZM664.079 470.964L664.089 470.981L664.099 470.999C666.08 474.485 667.087 478.47 667.087 482.993C667.087 487.516 666.08 491.549 664.092 495.128L664.086 495.138C662.179 498.635 659.528 501.364 656.116 503.347L656.11 503.351L656.103 503.355C652.789 505.328 649.025 506.328 644.771 506.328C640.341 506.328 636.399 505.324 632.91 503.343C629.498 501.358 626.803 498.626 624.811 495.122C622.825 491.545 621.819 487.514 621.819 482.993C621.819 478.47 622.826 474.485 624.807 470.999L624.811 470.993L624.814 470.986C626.81 467.393 629.508 464.622 632.917 462.64L632.926 462.634C636.413 460.574 640.349 459.532 644.771 459.532C649.013 459.532 652.769 460.568 656.081 462.618L656.098 462.629L656.116 462.64C659.52 464.618 662.17 467.383 664.079 470.964Z" fill="#F0F0F0" stroke="black" stroke-width="3"/>
<path d="M160.137 385.864C160.137 398.514 149.882 408.77 137.231 408.77C124.581 408.77 114.325 398.514 114.325 385.864C114.325 373.213 124.581 362.958 137.231 362.958C149.882 362.958 160.137 373.213 160.137 385.864Z" fill="#004AAD"/>
<path d="M664.943 625V606.133L667.384 612.598L647.065 578.822H658.412L673.981 604.748H667.45L683.084 578.822H693.573L673.255 612.598L675.63 606.133V625H664.943Z" fill="black"/>
<path d="M615.236 625V587.53H600.459V578.822H640.7V587.53H625.923V625H615.236Z" fill="black"/>
<path d="M576.108 625V578.822H586.795V625H576.108Z" fill="black"/>
<path d="M514.915 625V578.822H523.754L550.999 612.07H546.712V578.822H557.267V625H548.493L521.182 591.752H525.47V625H514.915Z" fill="black"/>
<path d="M472.57 597.425H494.801V605.737H472.57V597.425ZM473.361 616.424H498.495V625H462.74V578.822H497.638V587.398H473.361V616.424Z" fill="black"/>
<path d="M391.819 625V578.822H400.659L420.317 611.41H415.634L434.962 578.822H443.736L443.868 625H433.841L433.775 594.193H435.622L420.185 620.118H415.37L399.603 594.193H401.846V625H391.819Z" fill="black"/>
<path d="M643.907 333.639L868.383 275L803.331 399.607L761.184 375.443L719.954 408.77L707.127 351.963L643.907 333.639Z" fill="#F0F0F0"/>
<path d="M719.954 408.77L707.126 351.963L868.383 275L734.613 360.209L719.954 408.77Z" fill="black"/>
<path d="M868.383 275L643.907 333.639L707.127 351.963M868.383 275L803.331 399.607L761.184 375.443M868.383 275L734.614 360.209M868.383 275L707.127 351.963M734.614 360.209L719.954 408.77M734.614 360.209L761.184 375.443M707.127 351.963L719.954 408.77M719.954 408.77L761.184 375.443" stroke="black"/>
</svg>
