<svg width="1920" height="1080" viewBox="0 0 1920 1080" fill="none" xmlns="http://www.w3.org/2000/svg">
<rect width="1920" height="1080" fill="white"/>
<path d="M1920 1080H0V807.5C121.5 880.5 160.5 526.5 385.5 526.5C894.462 526.5 845.602 398.372 853.5 277.5C865 101.5 989.345 74.1259 1096.5 78.4997C1292.5 86.5 1426.5 144.203 1677.5 94C1795.04 70.4904 1823.5 55.5 1920 3.5V300V1080Z" fill="#D8E9FF"/>
<path d="M1920 1080H0C5.76811 1066.24 0 956 0 956C38.5 926.5 102.098 844.626 125.5 818.5C241.5 689 332.441 662 435.5 662C553 662 660.5 712 863.5 771C1066.5 830 1174.22 806.3 1221.5 687.5C1281 538 1232 435.5 1325.5 315C1387.37 235.262 1499 244.5 1619.5 274.5C1705.32 295.867 1828.5 309.5 1920 252.5V1080Z" fill="#A4CBFF"/>
<path d="M1920 1080H0C9.5 1057.33 36.927 990.006 96.5 923.5C212.5 794 370.441 749 473.5 749C591 749 613 766.5 816 825.5C1019 884.5 1131.52 866.438 1232.5 788C1344.5 701 1292 545 1337.5 444C1378.95 351.98 1503 327 1613.5 330.5C1701.9 333.3 1785 352.5 1920 300V1080Z" fill="#569FFF"/>
</svg>