<?xml version="1.0" encoding="UTF-8"?>
<svg version="1.1" viewBox="0 0 360 360" xmlns="http://www.w3.org/2000/svg">
<svg width="360" height="360" viewBox="0 0 3000 3000" xmlns="http://www.w3.org/2000/svg">
<path class="color474747 svgShape" d="m2850.6 2058.5h-2701.2c-2.768 0-5.014-2.25-5.014-5.02s2.246-5.01 5.014-5.01h2701.2c2.77 0 5.01 2.24 5.01 5.01s-2.24 5.02-5.01 5.02zm-828.02 50.07s-1403.1-27.97-1532.1-9.32c-128.94 18.65 87.617 70.67 187.6 80.05 99.982 9.37 89.116 111.04 455.2 123.64 366.08 12.59 613.64 6.95 751.46-93.71 64.07-53.18 749.29-93.91 137.81-100.66z" fill="#474747"/>
<path class="color474747 svgShape" d="m1373.4 2313.1c-75.26 0-155.6-2.21-240.25-5.12-246.06-8.47-321.76-56.32-377.03-91.26-25.986-16.43-46.508-29.4-78.46-32.4-53.761-5.04-231.19-36.26-232-68.56-0.261-10.37 13.357-16.99 44.151-21.44 127.88-18.49 1475.4 8.12 1532.9 9.27 255.73 2.82 256.36 11.32 256.95 19.54 0.78 10.68-18.42 15.32-146.67 35.38-98.38 15.39-220.82 34.55-244.98 54.6-109.72 80.15-289.16 99.98-514.58 99.99zm-590.6-215.19c-148.8 0-259.74 1.73-291.56 6.33-34.182 4.95-35.566 11.21-35.563 11.27 0.392 15.63 131.64 50.27 222.91 58.82 34.345 3.22 55.765 16.76 82.883 33.91 54.302 34.33 128.67 81.34 372.03 89.71 336.2 11.57 604.8 12.08 748.32-92.74 26.04-21.63 144.81-40.21 249.59-56.61 54.53-8.53 115.45-18.06 133.88-24.59-16.99-4.05-75.8-8.56-242.75-10.4h-0.05c-10.51-0.21-794.31-15.7-1239.7-15.7h-1e-3z" fill="#474747"/>
<path class="color7C7C7C svgShape" d="m2298.2 434.21h-1543.4v1070.2h1543.4v-1070.2z" fill="#7c7c7c"/>
<path class="color474747 svgShape" d="m2298.2 1509.4h-1543.4c-2.768 0-5.014-2.25-5.014-5.01v-1070.2c0-2.768 2.246-5.014 5.014-5.014h1543.4c2.77 0 5.02 2.246 5.02 5.014v1070.2c0 2.76-2.25 5.01-5.02 5.01zm-1538.4-10.03h1533.4v-1060.2h-1533.4v1060.2z" fill="#474747"/>
<path class="colorFCFCFC svgShape" d="m2255.9 472.71h-1458.9v993.23h1458.9v-993.23z" fill="#fcfcfc"/>
<path class="color474747 svgShape" d="m2255.9 1471h-1459c-2.768 0-5.014-2.24-5.014-5.01v-993.23c0-2.768 2.246-5.014 5.014-5.014h1459c2.76 0 5.01 2.246 5.01 5.014v993.23c0 2.77-2.25 5.01-5.01 5.01zm-1453.9-10.03h1448.9v-983.19h-1448.9v983.19z" fill="#474747"/>
<path class="color474747 svgShape" d="m1993.2 1471c-1.26 0-2.53-0.48-3.5-1.43-44.96-43.97-77.66-90.74-97.2-139.02-6.79-16.81-29.08-33.15-64.48-47.25-189.03-75.28-757.49-83.46-1028.9 40.78-2.51 1.14-5.487 0.04-6.646-2.48-1.152-2.51-0.046-5.49 2.474-6.64 122.4-56.02 320.96-91.19 544.77-96.48 205.39-4.82 393.9 16.42 492.05 55.51 38.55 15.35 62.12 33.12 70.06 52.81 19.03 46.98 50.96 92.6 94.92 135.6 1.98 1.94 2.02 5.11 0.08 7.09-0.98 1.01-2.29 1.51-3.59 1.51zm153.58-153.94c-107.72 0-164.58-40.42-194.4-79.54-56.13-73.61-188.09-134.85-362.03-167.99-158.66-30.24-329.46-32.6-445.76-6.17-129.68 29.44-261.6-5.76-349.44-40.47-2.572-1.02-3.835-3.93-2.817-6.51 1.012-2.58 3.92-3.85 6.505-2.82 86.52 34.19 216.36 68.9 343.53 40.02 229.66-52.2 687.48 6.73 817.99 177.87 66.93 87.81 197.13 83.26 294.6 63.96 2.67-0.55 5.35 1.22 5.88 3.95 0.55 2.72-1.22 5.35-3.94 5.89-41.6 8.24-78.12 11.81-110.12 11.81zm96.1-162.25c-66.26 0-128.25-31.23-184.46-92.97-17.32-19.04-33.06-37.08-48.27-54.53-129.15-148.17-200.29-229.8-645.79-223.06-363.16 5.481-475.09-6.124-570.84-98.127-1.998-1.919-2.06-5.095-0.144-7.09 1.926-1.994 5.099-2.053 7.09-0.144 93.142 89.5 203.81 100.76 563.74 95.333 450.13-6.799 522.37 76.068 653.5 226.49 15.18 17.42 30.87 35.42 48.13 54.38 57.82 63.52 121.68 93.55 189.78 89.29 2.73-0.21 5.14 1.93 5.31 4.69 0.18 2.77-1.93 5.14-4.69 5.32-4.47 0.28-8.93 0.42-13.36 0.42zm13.06-211.52c-0.13 0-0.25-3e-3 -0.37-0.013-71.56-5.125-103.52-57.407-137.36-112.76-38.62-63.187-82.4-134.81-194.27-156.32-144.32-27.742-202.01-124.08-224.99-200.01-0.8-2.65 0.7-5.448 3.35-6.251 2.63-0.8 5.44 0.692 6.25 3.346 22.18 73.287 77.88 166.27 217.28 193.07 116.23 22.346 161.23 95.976 200.94 160.94 33.86 55.393 63.1 103.23 129.52 107.99 2.76 0.196 4.84 2.598 4.64 5.36-0.19 2.641-2.39 4.655-4.99 4.655v-2e-3z" fill="#474747"/>
<path class="colorFCFCFC svgShape" d="m823.32 2365.1 299.03-26.02-62.28 216.15s-304.91 9.51-375.12 10.57l138.37-200.7h1e-3z" fill="#fcfcfc"/>
<path class="color474747 svgShape" d="m684.96 2570.8c-1.848 0-3.548-1.01-4.42-2.65-0.888-1.65-0.774-3.66 0.291-5.21l138.37-200.7c0.849-1.23 2.203-2.02 3.695-2.14l299.03-26.02c1.64-0.14 3.25 0.53 4.3 1.81 1.05 1.27 1.41 2.98 0.95 4.57l-62.28 216.14c-0.6 2.1-2.49 3.56-4.66 3.63-3.05 0.09-305.76 9.52-375.2 10.57h-0.075zm141.16-200.92-131.49 190.73c78.839-1.54 328.4-9.26 361.65-10.29l59.24-205.62-289.4 25.18z" fill="#474747"/>
<path class="colorFCFCFC svgShape" d="m736 2365.1-188.72-70.27-310.06 104.13s183.02 103.32 244.33 104.95l254.45-138.81h1e-3z" fill="#fcfcfc"/>
<path class="color474747 svgShape" d="m481.56 2508.9h-0.134c-61.846-1.65-239.14-101.36-246.66-105.6-1.723-0.98-2.716-2.88-2.526-4.85 0.186-1.97 1.518-3.64 3.395-4.27l310.06-104.13c1.09-0.35 2.272-0.34 3.346 0.06l188.71 70.26c1.841 0.69 3.111 2.38 3.251 4.34s-0.875 3.82-2.598 4.76l-254.45 138.81c-0.738 0.41-1.564 0.62-2.402 0.62h-2e-3zm-231.95-108.84c38.504 21.16 178.39 96.16 230.76 98.76l243.58-132.89-176.75-65.81-297.6 99.94z" fill="#474747"/>
<path class="colorFCFCFC svgShape" d="m984.28 2305.9-264.23-24.38-287.06 158.46s245.09 67.5 297.47 63.73c0 0 178.33-106.23 253.82-197.81z" fill="#fcfcfc"/>
<path class="color474747 svgShape" d="m725.92 2508.9c-60.942 0-284.49-61.37-294.25-64.06-1.965-0.54-3.408-2.22-3.646-4.24-0.242-2.03 0.77-4 2.556-4.98l287.06-158.46c0.878-0.48 1.903-0.68 2.882-0.6l264.23 24.37c1.851 0.17 3.453 1.35 4.168 3.07 0.715 1.71 0.421 3.68-0.761 5.11-75.167 91.2-253.32 197.87-255.12 198.94-0.672 0.4-1.426 0.64-2.207 0.69-1.488 0.11-3.133 0.16-4.908 0.16zm-279.66-70.49c49.269 13.28 236.2 62.62 282.68 60.4 14.307-8.63 171.2-104.23 245.27-188.78l-253.08-23.34-274.87 151.72h-1e-3z" fill="#474747"/>
<path class="color48A0CC svgShape" d="m1955.7 2039.1c-12.36 85.97-206.9 157.36-206.9 157.36s6.35 22.46-24.2 43.85c27.88 26.94-18.31 51.61-91.18 78.02-72.93 26.41-240.32-56.89-295.81-58.9-38.77 49.74-74.87 46.46-97.93 29.15-23.07-17.25-61.17-8.02-61.17-8.02s-351.56-143.26-410.13-150.41c-58.56-7.16-110.03-101.95-126.95-139.12-16.846-37.23 10.495-81.76 45.324-145.6 34.828-63.84 153.49-15.37 214.52 0-14.172-51.67 30.35-71.53 30.35-71.53s11.966-20.59 4.479-43.05 18.718-47.59 18.718-47.59c-18.718-32.56 19.654-47.67 19.654-47.67s87.308-289.26 118.53-355.57c31.28-66.25 286.38-163.92 286.38-163.92 251.49 3.14 364.27 170.4 393.28 210.78 29.01 40.44-21.53 129.42-4.08 139.85 15.71 21.59 8.63 71.6 8.63 71.6s13.7 165.38 2.4 204.76c-149.68 56.62-143.99 173.21-143.99 173.21s218.06 7.68 259.71 6.48c41.58-1.27 65.38 79.15 60.36 116.32z" fill="#52cc7c"/>
<path class="color474747 svgShape" d="m1599 2328.4c-48.8 0.01-113.9-21.31-168.54-39.19-37.87-12.39-70.79-23.17-90.51-24.66-17.19 21.34-58.38 61.7-103.26 28-20.87-15.6-56.63-7.24-56.99-7.16-1.01 0.25-2.09 0.17-3.06-0.23-3.51-1.43-351.61-143.09-408.84-150.08-66.804-8.16-120.76-119.73-130.9-142.01-16.67-36.85 6.303-78.69 38.096-136.59l7.39-13.49c31.326-57.44 121.96-30.87 188.15-11.46 8.493 2.49 16.641 4.89 24.089 6.92-7.517-43.56 25.438-64.08 33.33-68.32 2.21-4.51 9.1-20.71 3.431-37.73-6.933-20.8 10.429-42.49 17.346-50.05-4.446-9.19-5.232-18.02-2.334-26.3 4.815-13.74 18.485-21.5 23.975-24.14 8.722-28.82 88.196-290.48 118.13-354.07 31.79-67.3 278.64-162.44 289.13-166.46 0.59-0.23 1.24-0.29 1.86-0.33 164.21 2.05 297.05 72.52 394.85 209.46l2.43 3.41c18.28 25.47 7.95 66.34-0.34 99.18-3.71 14.67-9.31 36.85-5.24 39.29 0.59 0.34 1.09 0.8 1.49 1.35 15.96 21.94 10.4 68.68 9.61 74.68 1 12.25 13.39 166.96 2.18 206.01-0.43 1.52-1.56 2.74-3.05 3.3-75.47 28.56-109.7 72.76-125.13 104.81-12.78 26.56-15.16 49.44-15.56 58.87 32.54 1.13 216.98 7.41 254.5 6.31 12.44-0.43 23.71 5.23 33.99 16.65 22.76 25.23 35.39 76.43 31.48 105.35v0.05c-11.83 82.2-178.18 149.15-206.36 159.94 0.47 7.93-1.5 24.78-22.29 41.29 4.99 6.36 6.78 12.99 5.34 19.77-4.15 19.39-33.76 37.42-102.23 62.23-10.43 3.78-22.67 5.4-36.16 5.4h0.01zm-261.37-74.02c0.06 0 0.12 0 0.18 0.01 20.79 0.75 55.54 12.12 95.77 25.29 68.27 22.34 153.22 50.16 198.16 33.89 39.13-14.18 91.65-35.3 95.83-54.9 1.02-4.78-1.08-9.62-6.43-14.79-1.08-1.04-1.63-2.51-1.51-4 0.11-1.49 0.89-2.85 2.12-3.71 26.94-18.86 22.44-37.65 22.24-38.44-0.65-2.49 0.69-5.13 3.11-6.02 1.91-0.7 191.82-71.33 203.66-153.34 3.6-26.75-8.03-74.03-28.99-97.28-8.24-9.14-17.08-13.61-26.26-13.34-41.24 1.24-251.13-6.17-260.04-6.48-2.6-0.09-4.7-2.17-4.83-4.77-0.06-1.24-1.28-30.84 16.35-67.78 16.01-33.52 51.26-79.56 128.45-109.43 9.78-42.01-3.07-198.98-3.2-200.59-0.03-0.37-0.02-0.75 0.03-1.11 0.07-0.48 6.47-47.17-7.23-67.26-9.17-6.84-4.59-24.95 1.66-49.69 7.78-30.83 17.47-69.19 1.92-90.88l-2.45-3.42c-95.65-133.92-225.46-202.98-385.85-205.25-16.55 6.42-253.59 99.26-282.76 161.03-30.7 65.22-117.38 351.99-118.26 354.88-0.441 1.46-1.534 2.65-2.951 3.21-0.16 0.07-16.112 6.55-20.512 19.2-2.223 6.4-1.093 13.56 3.359 21.31 1.146 1.99 0.783 4.51-0.875 6.11-0.238 0.23-23.822 23.24-17.434 42.4 8.108 24.33-4.367 46.24-4.903 47.16-0.526 0.9-1.329 1.62-2.282 2.05-1.655 0.75-40.391 18.87-27.566 65.63 0.473 1.72-3e-3 3.56-1.253 4.83-1.247 1.27-3.072 1.8-4.805 1.36-9.603-2.42-20.665-5.67-32.377-9.1-62.907-18.45-149.06-43.71-176.52 6.64l-7.4 13.5c-30.396 55.36-52.354 95.36-37.756 127.63 5.973 13.12 60.197 128.53 122.99 136.2 57.243 6.99 382.01 138.78 409.97 150.16 7.85-1.64 41.57-7.32 63.72 9.24 27.66 20.77 60.82 10.47 90.98-28.22 0.95-1.22 2.41-1.93 3.95-1.93z" fill="#474747"/>
<path class="color317C99 svgShape" d="m1955.7 2039.1c-12.36 85.97-206.9 157.36-206.9 157.36s6.35 22.46-24.2 43.85c27.88 26.94-18.31 51.61-91.18 78.02-72.93 26.41-240.32-56.89-295.81-58.9-38.77 49.74-74.87 46.47-97.93 29.15-23.07-17.25-61.17-8.02-61.17-8.02s-351.56-143.26-410.13-150.41c-58.56-7.16-110.03-101.95-126.95-139.12-16.846-37.23 10.495-81.76 45.324-145.6 34.828-63.84 153.49-15.37 214.52 0 0 0 100.68 76.41 133.9 97 21.73 13.37 44.32 5.75 57.49-1.27 7.02-3.68 11.3-7.15 11.3-7.15s104.75 48.33 202.89 125.54c78.28-3.47 328.77-143.26 328.77-143.26s218.06 7.69 259.71 6.49c41.58-1.27 65.38 79.15 60.36 116.32z" fill="#317c99"/>
<path class="color474747 svgShape" d="m1599 2328.4c-48.8 0.01-113.9-21.3-168.54-39.19-37.87-12.39-70.79-23.17-90.51-24.66-17.19 21.34-58.38 61.7-103.26 28-20.87-15.6-56.63-7.25-56.99-7.16-1.01 0.25-2.09 0.17-3.06-0.23-3.51-1.43-351.61-143.09-408.84-150.08-66.804-8.16-120.76-119.73-130.9-142.01-16.67-36.85 6.303-78.69 38.096-136.59l7.39-13.49c31.326-57.44 121.96-30.87 188.15-11.46 11.614 3.41 22.588 6.63 32.002 9 0.656 0.17 1.27 0.46 1.808 0.87 1.002 0.76 100.86 76.5 133.5 96.73 19.11 11.76 39.09 5.7 52.5-1.43 6.46-3.39 10.46-6.6 10.5-6.63 1.48-1.2 3.53-1.45 5.25-0.65 1.05 0.48 105.35 48.97 202.4 124.98 78.26-5.44 322.24-141.14 324.72-142.52 0.8-0.45 1.69-0.71 2.62-0.63 2.17 0.07 218.4 7.67 259.39 6.48 12.44-0.44 23.71 5.23 34 16.64 22.75 25.23 35.38 76.43 31.47 105.36v0.04c-11.83 82.2-178.18 149.16-206.36 159.94 0.47 7.94-1.49 24.78-22.29 41.29 4.99 6.37 6.78 13 5.34 19.77-4.15 19.39-33.76 37.42-102.23 62.23-10.43 3.78-22.67 5.4-36.15 5.4zm-261.37-74.02c0.06 0 0.12 0 0.18 0.01 20.79 0.75 55.54 12.12 95.77 25.29 68.27 22.34 153.22 50.16 198.16 33.89 39.13-14.18 91.65-35.3 95.83-54.9 1.02-4.78-1.08-9.62-6.43-14.79-1.08-1.04-1.63-2.51-1.51-4 0.11-1.49 0.89-2.85 2.12-3.71 26.94-18.86 22.44-37.65 22.24-38.44-0.65-2.49 0.69-5.13 3.11-6.02 1.91-0.7 191.82-71.32 203.66-153.34 3.6-26.75-8.03-74.03-28.99-97.28-8.24-9.14-17.08-13.61-26.26-13.34-39.99 1.2-238.28-5.72-258.64-6.44-21.24 11.81-253.2 139.81-329.77 143.21-1.21 0.07-2.37-0.32-3.32-1.07-87.9-69.15-182.29-115.57-199.22-123.67-2.09 1.47-5.36 3.6-9.54 5.78-12.83 6.84-38.05 16.11-62.44 1.1-31.86-19.74-123.2-88.85-133.5-96.66-9.368-2.38-20.071-5.52-31.382-8.84-62.907-18.45-149.06-43.71-176.52 6.64l-7.4 13.5c-30.396 55.36-52.354 95.36-37.756 127.63 5.973 13.12 60.197 128.53 122.99 136.2 57.243 6.99 382.01 138.78 409.97 150.16 7.86-1.63 41.58-7.32 63.72 9.24 27.66 20.77 60.82 10.47 90.98-28.22 0.95-1.22 2.41-1.93 3.95-1.93z" fill="#474747"/>
<path class="color474747 svgShape" d="m1635.6 1916.3s-135.08 177.48-182.17 175.75c-21.2-0.78-23.8-14.75-42.38 9.83-7.89 10.43-39.58-3.74-46.8 11.36 0 0-22.53-21.32-39.04-7.42-16.51 6.49-19.12-19.52-42.11-18.65-33.56-19.65-226.82-107.49-238.86-112.97 7.16 2.54 77.68 27.67 67.86 6.88-5.15-10.83-12.97-26.67-19.46-39.91 7.02-3.67 11.3-7.15 11.3-7.15s104.75 48.33 202.89 125.54c78.28-3.47 328.77-143.25 328.77-143.25v-0.01z" fill="#474747"/>
<path class="color474747 svgShape" d="m1364.3 2118.2c-1.26 0-2.5-0.48-3.44-1.37-0.19-0.18-19.5-18.07-32.37-7.23-0.41 0.35-0.89 0.63-1.39 0.83-11.25 4.41-18.23-2.58-23.85-8.19-5.4-5.39-10.52-10.58-19.91-10.12-0.94 0.04-1.9-0.2-2.73-0.68-29.93-17.53-188.72-90.13-236.68-111.96l-1.72-0.78c-2.44-1.11-3.57-3.96-2.57-6.44 1.01-2.49 3.82-3.75 6.33-2.85 37.98 13.5 57.26 16.01 61.93 14.45-0.07-0.19-0.16-0.42-0.29-0.69-4.09-8.61-9.88-20.41-15.34-31.53l-4.08-8.32c-1.2-2.44-0.23-5.39 2.18-6.65 6.42-3.36 10.43-6.57 10.46-6.61 1.49-1.2 3.53-1.45 5.26-0.65 1.05 0.48 105.35 48.97 202.4 124.98 78.27-5.44 322.24-141.14 324.72-142.52 2.08-1.16 4.67-0.7 6.23 1.09 1.55 1.8 1.64 4.43 0.2 6.32-13.99 18.38-137.75 179.45-186.34 177.73-7.08-0.26-12.25-1.85-16.4-3.13-8.2-2.52-10.97-3.37-21.8 10.96-5.18 6.85-15.37 6.43-25.21 6.02-10.86-0.43-18.73-0.39-21.06 4.49-0.69 1.44-2.03 2.47-3.61 2.76-0.3 0.06-0.61 0.09-0.92 0.09zm-26.23-22.23c10.33 0 20.05 6 25.41 10.04 6.64-6 17.67-5.54 26.81-5.17 6.6 0.26 14.8 0.6 16.81-2.04 13.57-17.97 20.73-18.2 32.74-14.51 3.77 1.17 8.06 2.48 13.82 2.69 32.32 0.96 118.25-98.18 163.11-154.66-62.64 33.98-243.75 129.27-309.67 132.19-1.21 0.12-2.37-0.32-3.32-1.07-87.9-69.15-182.29-115.57-199.22-123.67-1.32 0.92-3.1 2.11-5.28 3.4l1.99 4.05c5.48 11.16 11.29 23 15.4 31.65 2.88 6.08 0.74 9.82-0.79 11.51-1.33 1.46-4.08 4.53-16.22 3.56 65.41 30.04 159.83 73.9 184.79 88.14 12.87 0.07 20.36 7.55 25.88 13.07 5.73 5.72 8.15 7.63 12.42 6.19 4.95-3.9 10.21-5.37 15.32-5.37z" fill="#474747"/>
<path class="colorBAD8E5 svgShape" d="m1402.2 1391s9.36 118.62 32.09 142.49l75.21-136.34s-67.07 26.49-107.3-6.15z" fill="#bad8e5"/>
<path class="color474747 svgShape" d="m1434.4 1538.5c-1.37 0-2.68-0.55-3.63-1.56-23.69-24.87-33.07-140.63-33.46-145.55-0.16-2 0.89-3.9 2.66-4.83s3.93-0.72 5.5 0.54c37.44 30.4 101.64 5.63 102.29 5.38 1.96-0.77 4.21-0.23 5.6 1.35 1.4 1.59 1.65 3.89 0.63 5.74l-75.2 136.34c-0.77 1.4-2.17 2.35-3.75 2.55-0.22 0.03-0.43 0.04-0.64 0.04zm-26.16-137.35c3.34 34.53 12.03 98.97 25.59 122.98l65.23-118.26c-19.94 5.64-59.89 13.22-90.82-4.72z" fill="#474747"/>
<path class="colorFFB140 svgShape" d="m1699.8 1012.2c16.38 64.24 23.53 142.39-68.79 161.44-1.93-4.08-11.69-10.29-26.47-17.65l13.24-13.77s52.47-8.02 63.84-32.35c11.3-24.27 13.9-107.36-19.79-79.29l-33.69 28.08-2.21-51.54s-36.76-24.803-27.61-75.609c0 0-45.99 45.525-108.16 35.631l16.04-15.643s-92.18 25.938-154.75-11.565c0 0-0.67 64.646 0.8 118.53-17.31-3.34-87.44-21.99-56.15-100.34-23.13-21.659-1.47-80.821 25-86.704-10.63-22.595 19.52-34.762 19.52-34.762s42.38-193.6 245.74-136.77c92.45 33.425 119.93 105.76 119.93 105.76s51.14 93.122-6.49 206.57z" fill="#2f2e2e"/>
<path class="color474747 svgShape" d="m1631 1178.6c-1.9 0-3.68-1.08-4.52-2.86-0.22-0.44-2.69-4.61-24.18-15.31-1.43-0.71-2.44-2.06-2.71-3.63s0.22-3.18 1.33-4.33l13.23-13.77c0.76-0.8 1.77-1.32 2.86-1.48 13.86-2.13 51.68-11.59 60.06-29.53 9.04-19.42 10.3-68.69-0.45-76.96-2.49-1.91-6.38-0.68-11.59 3.65l-33.69 28.08c-1.46 1.23-3.49 1.51-5.24 0.74-1.74-0.78-2.9-2.47-2.98-4.38l-2.1-49.16c-7.36-5.8-30.9-27.511-29.11-66.2-17.18 13.141-55.1 36.121-102.55 28.584-1.87-0.297-3.41-1.626-3.99-3.434-0.57-1.808-0.08-3.783 1.28-5.108l3.36-3.277c-28.71 5.396-86.97 11.852-133.62-11.882-0.13 19.258-0.28 68.107 0.86 109.93 0.04 1.52-0.61 2.98-1.77 3.96-1.15 0.99-2.69 1.39-4.19 1.1-13.33-2.57-45.93-11.5-60.81-38.74-9.73-17.8-9.8-39.777-0.21-65.374-9.22-10.837-11.53-28.571-6.14-48.316 4.73-17.284 15.74-36.098 30.5-42.649-1.35-5.148-1.07-10.2 0.85-15.084 4.28-10.925 15.76-17.607 20.82-20.104 3.66-14.454 24.63-86.092 88.79-124.67 44.31-26.655 99.03-31.169 162.61-13.393 91.83 33.187 120.84 102.62 123.15 108.5 3.27 6.29 49.36 98.891-5.74 209.23 9.07 36.07 17.96 87.27-4.73 123.56-13.39 21.41-36.39 35.61-68.36 42.21-0.34 0.07-0.68 0.1-1.02 0.1zm-18.18-24.05c11.88 6.26 17.48 10.44 20.29 13.46 27.55-6.27 47.32-18.72 58.77-37.04 21.03-33.64 11.82-83.22 3.05-117.58-0.3-1.18-0.16-2.43 0.39-3.51 55.78-109.81 7.06-200.97 6.56-201.88-0.11-0.199-0.21-0.411-0.29-0.627-0.27-0.702-27.93-70.643-116.95-102.82-60.42-16.876-112.46-12.74-154.31 12.394-66.35 39.842-84.65 119.94-84.83 120.74-0.35 1.609-1.48 2.951-3.01 3.571-0.14 0.059-13.84 5.748-17.69 15.612-1.52 3.904-1.26 7.951 0.82 12.368 0.65 1.377 0.64 2.977-0.03 4.345-0.67 1.364-1.93 2.353-3.42 2.683-11.21 2.494-23.14 18.175-28.37 37.29-4.84 17.708-2.7 32.981 5.71 40.864 1.51 1.41 2 3.6 1.23 5.52-9.57 23.975-10.07 44.11-1.47 59.85 11.06 20.24 34.87 28.95 47.79 32.31-1.24-51.98-0.64-111.64-0.64-112.26 0.02-1.795 1-3.447 2.57-4.322 1.57-0.881 3.49-0.849 5.02 0.075 59.95 35.928 149.92 11.291 150.82 11.036 2.21-0.601 4.56 0.336 5.7 2.324 1.15 1.985 0.8 4.491-0.84 6.094l-8.44 8.235c53.75 3.375 93.12-34.962 93.53-35.377 1.56-1.537 3.94-1.883 5.87-0.872 1.93 1.018 2.99 3.173 2.6 5.327-8.44 46.805 24.1 69.617 25.48 70.567 1.31 0.89 2.13 2.35 2.2 3.93l1.77 41.42 25.91-21.59c11.58-9.65 19.51-7.44 24.13-3.89 17.08 13.15 12.68 69.24 3.41 89.14-11.27 24.14-56.38 33.24-65.92 34.92l-7.41 7.71v-0.01z" fill="#474747"/>
<path class="colorFFF6E3 svgShape" d="m1681.6 1109.8c-11.37 24.34-63.84 32.36-63.84 32.36l-13.24 13.77-13.9 14.44c1.27 71.13-81.09 226.76-81.09 226.76s-84.1 25.53-107.3-6.15c-23.26-31.62 15.45-181.37 15.45-181.37s-51.55-61.16-59.77-81.75c-3.14-7.83-4.81-36.64-5.68-69.46-1.47-53.88-0.8-118.53-0.8-118.53 62.57 37.503 154.75 11.565 154.75 11.565l-16.04 15.643c62.17 9.894 108.16-35.631 108.16-35.631-9.15 50.806 27.61 75.61 27.61 75.61l2.21 51.54 33.69-28.08c33.69-28.08 31.09 55.02 19.79 79.28z" fill="#886d42"/>
<path class="color474747 svgShape" d="m1447.9 1411.9c-20.08 0-39.67-4.16-49.71-17.88-23-31.26 7.88-158.95 13.99-183.08-9.09-10.89-51.25-61.94-58.93-81.15-1.09-2.73-4.44-11.06-6.03-71.18-1.46-53.35-0.81-118.06-0.81-118.71 0.02-1.795 1-3.447 2.57-4.322 1.57-0.881 3.49-0.849 5.03 0.075 59.94 35.932 149.91 11.287 150.82 11.036 2.21-0.601 4.55 0.336 5.7 2.324 1.14 1.985 0.8 4.491-0.85 6.094l-8.44 8.235c53.61 3.205 93.13-34.969 93.54-35.38 1.56-1.528 3.93-1.88 5.86-0.865 1.93 1.018 2.99 3.173 2.6 5.324-8.48 47.043 25.14 70.328 25.48 70.558 1.32 0.89 2.14 2.35 2.2 3.94l1.78 41.42 25.9-21.59c11.58-9.65 19.52-7.45 24.13-3.89 17.08 13.14 12.68 69.24 3.41 89.14v0.01c-11.27 24.13-56.37 33.23-65.92 34.9l-24.58 25.55c-0.26 72.41-78.33 220.75-81.68 227.09-0.63 1.18-1.7 2.07-2.98 2.45-2.13 0.65-33.15 9.9-63.08 9.9zm-91.52-463.49c-0.12 19.258-0.28 68.106 0.86 109.93 1.35 50.75 3.92 64.21 5.33 67.73 7.83 19.61 58.43 79.79 58.94 80.39 1.05 1.25 1.43 2.92 1.02 4.49-10.6 41.01-34.18 152.78-16.26 177.14 16.83 22.98 75.87 11.81 99.8 4.91 9.23-17.77 80.69-157.56 79.53-222.46-0.02-1.32 0.48-2.61 1.4-3.57l27.14-28.2c0.76-0.8 1.77-1.31 2.86-1.48 13.86-2.13 51.67-11.59 60.06-29.52 9.04-19.43 10.29-68.7-0.45-76.96-2.49-1.92-6.38-0.69-11.59 3.64l-33.69 28.08c-1.46 1.23-3.49 1.51-5.24 0.74-1.74-0.78-2.9-2.47-2.98-4.37l-2.1-49.17c-7.36-5.8-30.9-27.51-29.11-66.199-17.18 13.141-55.1 36.121-102.55 28.584-1.87-0.297-3.41-1.626-3.99-3.434-0.57-1.808-0.08-3.783 1.28-5.108l3.36-3.277c-28.71 5.396-86.97 11.852-133.62-11.882z" fill="#474747"/>
<path class="color474747 svgShape" d="m1617.8 1142.2s-115.49 83.31-141.46 87.12c-25.98 3.81-58.62-19.67-58.62-19.67s45.89 60.49 73.46 52.53 126.62-119.98 126.62-119.98z" fill="#474747"/>
<path class="color474747 svgShape" d="m1486 1267.9c-29.48 0-67.72-49.21-72.28-55.22-1.5-1.97-1.32-4.75 0.41-6.52 1.72-1.78 4.5-2.03 6.51-0.58 0.31 0.23 31.36 22.29 54.97 18.78 20.31-2.98 107.41-63.25 139.25-86.22 2.08-1.5 4.94-1.2 6.65 0.7 1.72 1.89 1.73 4.77 0.04 6.68-10.23 11.58-100.82 113.35-128.98 121.48-2.13 0.61-4.33 0.9-6.57 0.9zm-46.3-40.39c16.93 17.54 37.5 33.49 50.09 29.85 15.66-4.52 60.06-49.06 93.53-84.81-36.66 25.17-88.76 59.16-106.25 61.73-12.47 1.83-26.07-1.96-37.37-6.77z" fill="#474747"/>
<path class="color474747 svgShape" d="m1457.9 1319.9c-2.23 0-4.27-1.5-4.85-3.76l-24.07-93.47c-0.69-2.68 0.92-5.42 3.6-6.11 2.68-0.72 5.42 0.93 6.11 3.61l24.07 93.47c0.69 2.68-0.92 5.41-3.6 6.1-0.42 0.11-0.84 0.16-1.26 0.16zm83.9-59.09c-0.64 0-1.29-0.12-1.92-0.38-2.56-1.06-3.77-4-2.71-6.55l23.92-57.6c1.07-2.56 3.99-3.77 6.56-2.71 2.56 1.07 3.77 4 2.71 6.56l-23.92 57.59c-0.81 1.93-2.67 3.09-4.64 3.09zm105.35-139.74c-4.84 0-9.51-2.92-13.07-8.25-4.48-6.71-7.01-17.32-2.89-23.73 2.37-3.68 6.52-5.36 11.34-4.56 1.83 0.29 3.23-0.04 4.56-1.07 4.45-3.44 6.31-13.14 6.61-16.26 0.06-0.59 0.22-1.17 0.47-1.71 5.85-12.12 11.65-17.61 17.14-16.38 6.47 1.46 7.38 10.19 7.42 18.54 0.01 2.77-2.22 5.02-4.99 5.03h-0.02c-2.76 0-5-2.22-5.02-4.99-0.01-2.9-0.16-4.98-0.35-6.45-1.51 2.01-3.31 4.94-4.77 7.86-0.48 3.79-2.59 16.27-10.33 22.28-3.52 2.72-7.76 3.78-12.31 3.05-0.78-0.12-1.19-0.04-1.26 0-0.73 0.65-1.15 5.15 1.44 10.53 1.84 3.83 4.54 6.41 6.42 6.04 2.71-0.46 5.33 1.33 5.82 4.06 0.49 2.72-1.33 5.33-4.05 5.81-0.72 0.13-1.44 0.2-2.16 0.2zm-78.28-89.34c-1.7 0-3.34-0.85-4.29-2.41-7.94-13.02-20.31-10.14-38.28-4.25-2.62 0.86-5.17 1.69-7.61 2.4-16.77 4.83-28.4-11.47-32.21-20.77-1.05-2.55 0.18-5.47 2.73-6.53 2.55-1.046 5.49 0.17 6.55 2.72 0.07 0.18 7.87 18.48 20.15 14.94 2.33-0.67 4.77-1.47 7.27-2.29 15.75-5.15 37.31-12.22 49.97 8.57 1.44 2.36 0.69 5.45-1.68 6.89-0.81 0.5-1.71 0.73-2.6 0.73zm-189.49-21.92c-1.07 0-2.14-0.33-3.05-1.03-2.2-1.69-2.61-4.84-0.92-7.03 8.31-10.826 17.48-16.313 27.26-16.313h0.14c15.03 0.075 25.22 13.383 25.64 13.948 1.67 2.215 1.22 5.355-0.99 7.025-2.19 1.66-5.33 1.23-7.01-0.98-0.08-0.1-7.71-9.952-17.75-9.965h-0.02c-6.51 0-13.01 4.168-19.32 12.395-0.99 1.28-2.48 1.95-3.98 1.95zm43.58 131.69c-1.76 0-3.47-0.93-4.39-2.58l-11.36-20.44c-0.95-1.71-0.82-3.81 0.34-5.39l22.71-31.05c1.63-2.24 4.77-2.73 7.01-1.09 2.23 1.64 2.72 4.77 1.08 7.01l-20.81 28.46 9.8 17.63c1.34 2.42 0.47 5.47-1.95 6.82-0.77 0.43-1.61 0.63-2.43 0.63zm30.27-0.27h-12.35c-2.77 0-5.02-2.25-5.02-5.02s2.25-5.01 5.02-5.01h12.35c2.76 0 5.01 2.24 5.01 5.01s-2.25 5.02-5.01 5.02z" fill="#474747"/>
<path class="colorF77777 svgShape" d="m1496.1 1179.8s-48.06 8.69-62.24 5.95c-2.14-0.4-3.87-1.27-5.28-2.48-7.95-6.41-5.61-22.39-5.61-22.39l21.92 5.68 9.36 2.41 41.85 10.83z" fill="#f77777"/>
<path class="color474747 svgShape" d="m1441.4 1191.3c-3.35 0-6.25-0.18-8.47-0.61-2.88-0.54-5.45-1.75-7.59-3.59-9.78-7.89-7.6-25-7.32-26.93 0.21-1.41 1.01-2.66 2.19-3.45 1.19-0.79 2.65-1.04 4.03-0.68l73.14 18.92c2.28 0.59 3.84 2.69 3.75 5.04-0.09 2.36-1.8 4.33-4.12 4.75-4.25 0.77-36.87 6.55-55.61 6.55zm-13.7-24c0.14 4.37 1.05 9.67 4.05 12.09 0.92 0.79 1.88 1.23 3.06 1.45 6.54 1.28 22.27-0.27 36.63-2.23l-43.74-11.31z" fill="#474747"/>
<path class="color474747 svgShape" d="m1444.9 1166.6c-7.35 4.35-13.1 11.77-16.31 16.71-7.95-6.41-5.61-22.39-5.61-22.39l21.92 5.68z" fill="#474747"/>
<path class="color474747 svgShape" d="m1428.6 1188.3c-1.14 0-2.25-0.39-3.14-1.12-9.9-7.98-7.72-25.09-7.44-27.02 0.21-1.41 1.01-2.66 2.19-3.45 1.19-0.79 2.65-1.04 4.03-0.68l21.93 5.69c1.96 0.51 3.42 2.14 3.71 4.15 0.28 2.01-0.67 3.99-2.42 5.02-6.83 4.04-12.11 11.2-14.65 15.12-0.77 1.19-2.01 2-3.42 2.23-0.26 0.04-0.52 0.06-0.79 0.06zm-0.9-21.01c0.07 2.33 0.37 4.93 1.08 7.21 1.47-1.82 3.17-3.75 5.08-5.61l-6.16-1.6zm101.61-93.91c1.37-7.58-2.04-14.54-7.62-15.55-5.58-1-11.22 4.32-12.59 11.9-1.36 7.58 2.05 14.54 7.63 15.55s11.21-4.32 12.58-11.9zm-120.17-12.49c1.37-7.58-2.05-14.54-7.63-15.55s-11.21 4.32-12.58 11.9 2.05 14.54 7.63 15.55 11.21-4.32 12.58-11.9zm28.22 11.25c-0.5 0-1.01-0.07-1.52-0.23-2.63-0.84-4.09-3.66-3.26-6.3 0.76-2.42 0.49-15.04-0.22-25.31-0.19-2.76 1.89-5.15 4.65-5.35 2.78-0.21 5.16 1.89 5.35 4.66 0.39 5.45 1.49 23.67-0.22 29.04-0.68 2.13-2.65 3.49-4.78 3.49z" fill="#474747"/>
<path class="colorF2E2C4 svgShape" d="m1549.6 1105.6c-1.86 0-3.64-1.03-4.51-2.81-1.21-2.49-0.18-5.49 2.31-6.71l22.77-11.12c2.49-1.21 5.49-0.18 6.7 2.31 1.22 2.48 0.19 5.49-2.3 6.7l-22.77 11.12c-0.71 0.35-1.46 0.51-2.2 0.51zm13.34 6.85c-2.24 0-4.27-1.51-4.85-3.78-0.69-2.68 0.93-5.41 3.62-6.1l14.9-3.79c2.7-0.71 5.41 0.94 6.1 3.62 0.68 2.68-0.94 5.41-3.62 6.09l-14.91 3.8c-0.41 0.11-0.83 0.16-1.24 0.16z" fill="#f2e2c4"/>
<path class="color474747 svgShape" d="m1506.2 956.5c-2.13 0-4.1-1.364-4.78-3.499-0.84-2.637 0.62-5.454 3.26-6.293 0.38-0.124 38.63-12.58 63.74-45.639 1.67-2.21 4.82-2.631 7.02-0.96 2.21 1.675 2.64 4.818 0.96 7.024-27.08 35.671-67 48.6-68.69 49.135-0.51 0.157-1.01 0.232-1.51 0.232zm92.11-19.986c-0.67 0-1.35-0.134-2.01-0.424-2.54-1.113-3.69-4.07-2.57-6.607l12.04-27.399c1.11-2.533 4.06-3.698 6.6-2.572 2.54 1.113 3.69 4.07 2.57 6.607l-12.03 27.399c-0.83 1.877-2.67 2.996-4.6 2.996zm27.61 75.605c-2.76 0-5.01-2.24-5.01-5.01v-33.384c0-2.768 2.25-5.014 5.01-5.014 2.77 0 5.02 2.246 5.02 5.014v33.384c0 2.77-2.25 5.01-5.02 5.01zm58.23 25.64c-1.06 0-2.12-0.33-3.03-1.02-2.2-1.68-2.63-4.82-0.96-7.03l15.64-20.56c1.68-2.21 4.82-2.63 7.03-0.95 2.2 1.67 2.63 4.82 0.95 7.02l-15.63 20.56c-0.99 1.3-2.49 1.98-4 1.98zm-53.14 140.88c-1.57 0-3.12-0.74-4.1-2.12-1.6-2.26-1.06-5.39 1.2-6.99 4.5-3.18 16.33-13.51 17.03-22.94 0.2-2.77 2.63-4.87 5.36-4.64 2.76 0.21 4.84 2.61 4.64 5.37-1.18 16.1-20.43 29.83-21.25 30.41-0.88 0.62-1.88 0.91-2.88 0.91zm-278.77-115.18c-1.08 0-2.16-0.34-3.07-1.05-0.97-0.75-23.87-18.78-23.72-43 0.09-14.01 7.77-26.875 22.83-38.248 2.19-1.668 5.35-1.234 7.02 0.979 1.67 2.21 1.23 5.356-0.98 7.024-12.43 9.388-18.77 19.585-18.84 30.315-0.12 19.32 19.63 34.85 19.83 35 2.19 1.7 2.59 4.85 0.89 7.04-0.99 1.27-2.46 1.94-3.96 1.94zm-39.67-16.56c-2.08 0-4.02-1.3-4.74-3.37-17.97-51.632 18.67-91.912 20.24-93.603 1.89-2.034 5.05-2.145 7.08-0.264 2.03 1.877 2.15 5.05 0.27 7.08-0.34 0.372-34.07 37.655-18.12 83.487 0.91 2.62-0.47 5.48-3.08 6.39-0.55 0.19-1.11 0.28-1.65 0.28zm-16.48-83.779c-0.91 0-1.82-0.242-2.64-0.751-2.36-1.456-3.08-4.547-1.62-6.9l41.52-67.098c1.45-2.357 4.55-3.085 6.9-1.626 2.35 1.456 3.08 4.547 1.62 6.9l-41.52 67.098c-0.95 1.534-2.59 2.377-4.26 2.377zm24.99-86.706c-2.24 0-4.28-1.515-4.86-3.79-0.67-2.686 0.96-5.412 3.64-6.088l27.51-6.917c2.71-0.653 5.42 0.953 6.09 3.64 0.67 2.686-0.95 5.412-3.64 6.088l-27.51 6.917c-0.41 0.101-0.82 0.15-1.23 0.15zm19.52-34.76c-2.23 0-4.27-1.502-4.85-3.767-0.69-2.68 0.93-5.415 3.61-6.104l18.32-4.707c2.69-0.699 5.41 0.93 6.1 3.61s-0.92 5.415-3.61 6.104l-18.32 4.707c-0.41 0.108-0.83 0.157-1.25 0.157z" fill="#474747"/>
<path class="color7C7C7C svgShape" d="m1082.8 1941.9c-7.96 24.46-31.09 14.97-31.09 14.97s-0.13-0.07-0.46-0.13c-6.49-1.61-79.422-20.39-117.66-43.52-13.571-8.16-22.796-16.92-23.13-25.61-0.668-18.11 12.367-30.01 31.486-36.43 40.645-13.64 108.83-2.61 132.76 25.8v0.07c14.11 16.78 16.04 40.38 8.09 64.85z" fill="#7c7c7c"/>
<path class="color474747 svgShape" d="m1061.8 1963.7c-6.56 0-11.65-2.05-11.98-2.18-0.55-0.1-78.285-19.49-118.82-44-16.804-10.1-25.163-19.82-25.545-29.7-0.695-18.9 11.702-33.59 34.9-41.38 40.413-13.58 112.13-3.62 138.2 27.32 0.14 0.18 0.28 0.36 0.4 0.55 14.37 17.48 17.44 42.01 8.62 69.15-2.84 8.71-7.72 14.73-14.52 17.88-3.83 1.77-7.76 2.36-11.26 2.36zm-7.8-11.29c0.08 0.01 8.08 3 14.9-0.2 4.14-1.94 7.22-5.93 9.14-11.85 7.8-23.98 5.25-45.31-7.16-60.07-0.13-0.16-0.25-0.32-0.36-0.49-21.76-25.11-86.715-37.37-126.97-23.86-13.171 4.43-28.734 13.48-28.072 31.5 0.232 5.97 7.583 13.61 20.701 21.49 39.255 23.74 115.51 42.76 116.28 42.95 0.37 0.09 1.19 0.36 1.54 0.54v-0.01z" fill="#474747"/>
<path class="colorFFF6E3 svgShape" d="m1051.2 1956.8-56.29 191.19s11.1 21.12 15.84 56.75c4.75 35.7 34.43 80.22 42.25 95.46-26.81 12.84-60.096-15.24-70.792-32.82-35.029-2.07-77.813 35.43-103.55 64.17-58.026 42.12-68.253 23.34-73.067 17.39-37.235 13.9-33.759-13.98-33.759-13.98-27.409 10.63-39.976-6.48-27.475-13.37 66.449-33.82 112.78-134.3 166.06-173.6-2.273-32.69 12.1-150.88 23.13-234.71 3.209-24.67 6.217-46.4 8.356-62.04 40.645-13.64 108.83-2.61 132.76 25.8v0.07l-23.46 79.69z" fill="#886d42"/>
<path class="color474747 svgShape" d="m822.72 2363.2c-8.97 0-14.643-3.74-18.766-8.37-13.282 4.37-23.335 3.95-29.909-1.24-4.253-3.36-6.067-7.98-6.808-11.85-16.226 4.3-27.949-0.49-31.595-8.3-2.833-6.07-0.293-12.59 6.32-16.23 36.973-18.83 67.684-58.92 97.388-97.69 22.229-29.02 43.261-56.48 65.937-73.93-1.374-35.57 11.815-145.64 23.305-232.96 2.735-21 5.322-39.87 7.349-54.67l1.011-7.4c0.258-1.89 1.567-3.46 3.372-4.07 40.413-13.58 112.13-3.62 138.2 27.32 0.76 0.91 1.18 2.05 1.18 3.24 0 0.48-0.07 1.02-0.21 1.48l-79.2 269c2.84 6.02 11.39 26.05 15.45 56.55 3.67 27.6 23.1 61.22 34.71 81.31 2.98 5.15 5.44 9.43 7.03 12.53 0.62 1.2 0.72 2.6 0.29 3.89-0.43 1.28-1.36 2.33-2.58 2.91-29.09 13.96-62.968-13.58-75.749-32.41h-0.091c-37.894 0-83.597 47.69-96.938 62.59-0.235 0.27-0.504 0.5-0.791 0.71-28.574 20.74-46.761 27.59-58.904 27.59h-2e-3zm-17.104-19.28c1.482 0 2.929 0.66 3.898 1.86l0.76 0.97c3.822 4.94 13.954 18.02 65.032-18.94 18.71-20.83 65.704-67.89 107.22-65.43 1.642 0.09 3.13 0.99 3.986 2.4 9.431 15.49 36.909 38.47 59.329 32.72-1.19-2.1-2.57-4.48-4.07-7.1-11.99-20.73-32.03-55.43-35.97-85-4.55-34.19-15.205-54.88-15.312-55.09-0.601-1.15-0.735-2.49-0.367-3.74l56.289-191.19 22.69-77.05c-22.45-23.48-83.062-34.99-122.65-23.26l-0.581 4.25c-2.027 14.78-4.609 33.63-7.341 54.6-16.843 128.01-24.831 208.83-23.101 233.72 0.121 1.71-0.643 3.36-2.024 4.38-22.366 16.5-43.608 44.23-66.101 73.59-30.383 39.66-61.798 80.67-100.65 100.45-1.152 0.64-2.561 1.78-1.925 3.14 1.498 3.21 10.465 6.85 25.313 1.09 1.652-0.64 3.506-0.36 4.896 0.72 1.391 1.09 2.109 2.83 1.89 4.58-3e-3 0.03-0.716 6.9 3.472 10.16 4.067 3.18 12.441 2.64 23.562-1.51 0.571-0.21 1.165-0.32 1.753-0.32h-2e-3z" fill="#474747"/>
<path class="colorFFF6E3 svgShape" d="m1731 1893.4c-30.4 25.84-93.43-13.43-113.19-124.4-2.22-50.27 28.99-310.47 28.99-310.47l-15.76-57.69s-57.34-58.91-34.25-110.11c9.07-28.05-12.02-67.15 13.6-69.34 15.11 2.01 25.63 58.12 25.63 58.12s15.1-75.72 37.77-71.86c22.66 3.86 26.75 26.28 26.75 26.28s2.44 8.3 15.36 23.22c12.93 14.93 5.69 54.43 5.69 54.43s17.82 1.95 15.41 17.02c-2.41 15.08-3.31 21.03 4.21 38.57s1.35 88.28 0 104.55c0 0 40.68 223.14 38.47 271.26-2.22 48.12-15.53 122.25-48.68 150.42z" fill="#886d42"/>
<path class="color474747 svgShape" d="m1709.9 1906.1c-5.27 0-10.81-1.01-16.46-3.04-29.38-10.56-65.98-51.09-80.59-133.15-2.24-49.71 26.45-290.96 28.84-310.98l-15.18-55.52c-7.7-8.25-57.16-64.05-34.31-114.71 3.13-9.79 1.94-22.43 0.89-33.58-1.28-13.5-2.38-25.15 3.79-32.54 3-3.6 7.4-5.67 13.07-6.16 0.36-0.02 0.73-0.02 1.09 0.03 11.75 1.57 20.09 23.09 25.06 41.18 6.73-24.18 19.6-58.11 38.51-54.89 25.69 4.37 30.59 28.99 30.84 30.3v-0.01c0.04 0 2.77 7.65 14.22 20.87 11.73 13.55 9.21 42.17 7.58 53.87 3.6 1.13 8.27 3.33 11.48 7.53 2.95 3.87 4.06 8.76 3.2 14.12-2.33 14.59-3.12 19.51 3.87 35.81 5.24 12.22 5.41 46.69 0.52 105.36l-0.08 0.92c2.88 15.83 40.6 224.43 38.43 271.73-2.46 53.36-17.14 125.71-50.44 154.01-6.91 5.86-15.24 8.85-24.33 8.85zm-99.75-679.62c-3.87 0.48-5.14 2.01-5.57 2.53-3.49 4.18-2.53 14.37-1.51 25.17 1.14 12.12 2.44 25.85-1.53 38.12-21.6 47.97 32.52 104.51 33.07 105.07 0.59 0.61 1.02 1.36 1.24 2.17l15.77 57.7c0.17 0.62 0.22 1.27 0.14 1.92-0.31 2.6-31.14 260.36-28.97 309.65 13.81 77.28 48.53 115.64 74.04 124.81 11.86 4.27 22.84 2.84 30.91-4.01v-0.01c28.87-24.53 44.36-91.41 46.91-146.82 2.16-47.01-37.99-267.91-38.39-270.13-0.08-0.43-0.1-0.87-0.07-1.31l0.14-1.58c5.84-70.01 3.36-93.34 0.25-100.58-8.12-18.97-7-25.98-4.55-41.34 0.43-2.66 0.01-4.77-1.27-6.45-2.53-3.32-8.01-4.6-9.73-4.79-1.39-0.15-2.65-0.87-3.48-1.99-0.83-1.11-1.16-2.53-0.91-3.9 1.89-10.33 4.75-39.51-4.54-50.24-13.26-15.31-16.11-24.15-16.39-25.1-0.27-1.27-3.97-19.54-22.78-22.74-12.06-2-26.3 39.29-32.01 67.9-0.47 2.34-2.53 4.03-4.92 4.03h-0.03c-2.4-0.02-4.46-1.73-4.9-4.09-4.57-24.33-14.16-51.98-20.92-53.99z" fill="#474747"/>
<path class="colorFCFCFC svgShape" d="m1604.5 1156 31.45 123.58 9.8-40.89-28.01-96.46-13.24 13.77z" fill="#fcfcfc"/>
<path class="color474747 svgShape" d="m1636 1284.6c-2.29 0-4.29-1.55-4.86-3.77l-31.45-123.58c-0.43-1.68 0.05-3.46 1.25-4.71l13.23-13.77c1.24-1.29 3.08-1.83 4.82-1.39 1.74 0.42 3.11 1.74 3.61 3.46l28.02 96.46c0.24 0.84 0.26 1.72 0.06 2.57l-9.81 40.89c-0.53 2.24-2.53 3.83-4.84 3.84h-0.03zm-25.9-127.12 25.75 101.21 4.77-19.87-25.23-86.85-5.29 5.51z" fill="#474747"/>
<path class="colorFCFCFC svgShape" d="m1640.6 1304 33.18 102.88 18.55 23.6 1.38-29.5-13.85-55.84s-24.09 4.87-21.11-19.17l11.36-23.86-8.25-7.03s-2.4 18.39-21.26 8.92z" fill="#fcfcfc"/>
<path class="color474747 svgShape" d="m1692.3 1435.5c-1.51 0-2.97-0.68-3.94-1.91l-18.55-23.6c-0.37-0.47-0.65-0.99-0.83-1.56l-33.18-102.88c-0.62-1.92-0.03-4.03 1.51-5.34 1.53-1.32 3.71-1.58 5.51-0.68 3.04 1.53 7.27 3.05 10.07 1.59 3.16-1.65 3.97-6.66 3.97-6.71 0.27-1.8 1.49-3.34 3.2-3.99 1.72-0.64 3.63-0.32 5.02 0.85l8.25 7.03c1.73 1.47 2.26 3.92 1.28 5.97l-11 23.11c-0.49 4.91 0.37 8.43 2.56 10.47 3.51 3.29 10.35 2.84 12.68 2.38 2.61-0.51 5.2 1.12 5.84 3.71l13.86 55.84c0.12 0.47 0.16 0.95 0.14 1.44l-1.38 29.5c-0.09 2.09-1.48 3.9-3.48 4.54-0.5 0.16-1.01 0.24-1.52 0.24h-0.01zm-14.06-31 9.68 12.31 0.72-15.33-12.63-50.91c-4.56 0.14-11.53-0.6-16.64-5.34-0.12-0.11-0.23-0.22-0.34-0.33l19.21 59.6zm-29.94-92.85 5.22 16.17c0.05-0.8 0.12-1.62 0.23-2.45 0.06-0.54 0.21-1.06 0.45-1.54l8.95-18.82c-1.32 1.88-3.11 3.67-5.53 4.95-2.78 1.47-5.9 2.04-9.32 1.69z" fill="#474747"/>
<path class="color474747 svgShape" d="m1661.8 1300.1c-0.76 0-1.53-0.17-2.25-0.54-2.48-1.24-3.47-4.25-2.23-6.73l30.48-60.62c1.24-2.47 4.24-3.48 6.73-2.23 2.47 1.24 3.47 4.26 2.22 6.73l-30.47 60.63c-0.88 1.75-2.65 2.76-4.48 2.76zm8.25 7.02c-0.99 0-1.99-0.29-2.87-0.9-2.27-1.58-2.83-4.71-1.24-6.98l36.19-51.9c1.59-2.27 4.71-2.83 6.98-1.24 2.27 1.58 2.83 4.71 1.25 6.98l-36.2 51.9c-0.97 1.4-2.53 2.14-4.11 2.14zm9.74 43.04c-0.95 0-1.92-0.27-2.77-0.84-2.31-1.54-2.93-4.65-1.4-6.95l41.72-62.74c1.54-2.31 4.65-2.92 6.95-1.4 2.31 1.54 2.94 4.65 1.4 6.96l-41.72 62.73c-0.97 1.45-2.56 2.24-4.18 2.24zm9.42 37.94c-1.17 0-2.35-0.41-3.3-1.25-2.08-1.82-2.29-4.99-0.47-7.07l47.72-54.45c1.82-2.09 4.99-2.3 7.08-0.47 2.08 1.82 2.29 4.99 0.46 7.07l-47.72 54.46c-0.99 1.13-2.37 1.71-3.77 1.71zm-19.24 61.83h-0.14c-10.41-0.46-20.98-15.98-23.97-20.73-1.32-2.1-0.9-4.87 0.99-6.48l19.95-17.01c2.11-1.79 5.27-1.55 7.07 0.56 1.79 2.11 1.54 5.27-0.56 7.07l-16.53 14.09c4.38 6.03 9.95 11.75 13.03 12.42 7.29-3.21 40.74-37.3 69.5-69.08 1.86-2.07 5.03-2.22 7.08-0.36 2.06 1.86 2.21 5.03 0.36 7.08-43.48 48.07-69.31 72.44-76.78 72.44z" fill="#474747"/>
<path class="color474747 svgShape" d="m1665.2 1418.7c-1.78 0-3.51-0.96-4.41-2.64l-15.05-27.92c-0.92-1.71-0.78-3.8 0.37-5.36l11.7-15.83c1.65-2.23 4.79-2.7 7.01-1.06 2.23 1.64 2.7 4.78 1.06 7.01l-9.81 13.28 13.54 25.12c1.32 2.44 0.4 5.49-2.03 6.8-0.76 0.41-1.57 0.6-2.38 0.6zm-32.85-100.87c-0.31 0-0.63-0.03-0.95-0.09-2.72-0.52-4.5-3.14-3.98-5.86 3.4-17.84 2.69-36.22 2.68-36.4-0.11-2.77 2.04-5.11 4.81-5.22 2.63-0.12 5.09 2.03 5.21 4.8 0.04 0.8 0.77 19.69-2.85 38.69-0.46 2.41-2.56 4.08-4.92 4.08zm-546.09 629.55c-2.85 0-4.7-0.59-5.16-0.75-2.61-0.92-3.97-3.79-3.04-6.4 0.92-2.61 3.8-3.98 6.4-3.05 0.14 0.04 6.74 1.83 16.11-6.88 7.39-6.89 17.88-62.11 22.97-99.13 0.06-0.45 0.18-0.88 0.36-1.29 4.53-10.6 16.06-40.6 14.93-52.04-0.14-1.41 0.33-2.82 1.28-3.87 6.99-9.45 40.05-146.59 59.23-230.78 0.62-2.7 3.31-4.39 6-3.78 2.7 0.62 4.39 3.3 3.78 6-11.45 50.27-48.44 210.34-60.21 233.14 0.43 16.13-12.94 48.53-15.52 54.65-2.35 16.92-13.47 92.78-25.99 104.44-8.69 8.09-16.34 9.74-21.14 9.74z" fill="#474747"/>
<path class="color474747 svgShape" d="m1128.5 1836.9c-2.62 0-4.82-2.04-5-4.69-2.36-36.26-56.72-81.11-57.27-81.56-2.14-1.75-2.46-4.91-0.7-7.05 1.75-2.14 4.9-2.46 7.05-0.71 2.38 1.94 58.29 48.06 60.93 88.67 0.18 2.77-1.91 5.15-4.68 5.33-0.11 0.01-0.22 0.01-0.33 0.01z" fill="#474747"/>
<path class="color474747 svgShape" d="m1130.9 1831c-2.37 0-4.48-1.7-4.92-4.12-4.51-24.9-18.54-93.02-29.16-108.96-1.54-2.3-0.92-5.41 1.39-6.95 2.3-1.54 5.41-0.92 6.95 1.39 13.94 20.92 30.01 108.99 30.68 112.73 0.5 2.73-1.31 5.33-4.04 5.83-0.3 0.05-0.6 0.08-0.9 0.08zm-48.1-32.43c-1.35 0-2.71-0.55-3.69-1.63-26.74-29.19-106.27-24.24-107.07-24.18-2.843 0.19-5.154-1.91-5.337-4.67-0.186-2.76 1.903-5.15 4.664-5.34 3.457-0.22 85.142-5.32 115.13 27.41 1.87 2.05 1.73 5.22-0.31 7.09-0.96 0.88-2.18 1.32-3.39 1.32zm-27.63-34.54c-1.04 0-2.09-0.32-2.98-0.98-7.06-5.25-24.15-7.8-30.14-8.34-2.76-0.25-4.79-2.68-4.55-5.44 0.25-2.76 2.62-4.83 5.45-4.55 2.49 0.23 24.65 2.43 35.22 10.28 2.22 1.65 2.68 4.79 1.03 7.01-0.98 1.33-2.5 2.02-4.03 2.02zm8.99-81.73c-1.39 0-2.76-0.57-3.75-1.68-18.53-20.84-53.8-21.31-54.16-21.31-2.76-0.02-5-2.27-4.98-5.04 0.01-2.76 2.25-4.99 5.01-4.99 1.24 0.34 39.96 0.31 61.62 24.67 1.84 2.07 1.66 5.24-0.41 7.08-0.96 0.85-2.15 1.27-3.33 1.27zm65.38 25.08c-2.57 0-4.76-1.97-4.99-4.58l-3.76-43.65c-0.23-2.75 1.81-5.18 4.57-5.42 2.82-0.22 5.19 1.81 5.42 4.56l3.76 43.64c0.24 2.76-1.8 5.19-4.56 5.43-0.15 0.01-0.29 0.02-0.44 0.02zm15.17-25.08c-0.08 0-0.17 0-0.26-0.01-2.76-0.14-4.89-2.49-4.75-5.26 4.17-82.2 7.16-302.66-28.63-335.29-3.01-2.75-5.98-3.79-9.37-3.33-2.73 0.43-5.28-1.5-5.67-4.25-0.4-2.74 1.5-5.28 4.24-5.67 6.42-0.91 12.31 1.04 17.56 5.84 46.6 42.48 32.51 330.95 31.88 343.21-0.13 2.68-2.35 4.76-5 4.76zm65.36-74.34c-0.84 0-1.69-0.21-2.47-0.65-2.41-1.37-3.26-4.43-1.89-6.84 0.61-1.08 61.24-108.02 72.72-139.95 0.93-2.6 3.81-3.95 6.41-3.01 2.61 0.93 3.96 3.8 3.02 6.41-11.77 32.73-70.92 137.07-73.43 141.5-0.92 1.63-2.62 2.54-4.36 2.54zm32.23-100.52c-0.45 0-0.91-0.06-1.36-0.18-2.67-0.75-4.22-3.52-3.47-6.19l13.53-48.1c0.75-2.66 3.53-4.2 6.18-3.47 2.67 0.75 4.22 3.52 3.47 6.18l-13.53 48.11c-0.62 2.21-2.63 3.65-4.82 3.65zm-31.82 7.52c-0.47 0-0.94-0.06-1.41-0.2-2.65-0.78-4.18-3.56-3.41-6.22l34.68-118.97c0.78-2.66 3.56-4.17 6.22-3.41 2.66 0.78 4.19 3.56 3.41 6.22l-34.68 118.97c-0.64 2.19-2.64 3.61-4.81 3.61zm31.81-161.07c-2.61 0-4.81-2.01-5-4.65-3.21-44.34-45.69-76.79-46.12-77.11-2.21-1.67-2.65-4.81-0.99-7.02 1.66-2.22 4.81-2.67 7.03-0.99 1.89 1.42 46.55 35.56 50.08 84.4 0.2 2.76-1.87 5.16-4.63 5.36-0.13 0.01-0.25 0.01-0.37 0.01zm54.08 428.45c-0.07 0-0.13 0-0.2-0.01-41.4-1.56-119.96-33.04-123.28-34.38-2.57-1.03-3.81-3.95-2.78-6.52s3.96-3.82 6.53-2.78c0.79 0.32 80.26 32.17 119.91 33.66 2.77 0.11 4.93 2.43 4.82 5.2-0.1 2.7-2.32 4.83-5 4.83zm110.53 69.63c-97.73 0-187.6-67.53-191.7-70.66-2.2-1.68-2.63-4.82-0.95-7.02 1.68-2.21 4.83-2.64 7.03-0.96 1.06 0.81 107.23 80.55 210.34 67.03 2.74-0.35 5.26 1.57 5.62 4.32 0.37 2.74-1.57 5.26-4.31 5.62-8.7 1.14-17.4 1.67-26.03 1.67zm-87.83 95.37c-0.17 0-0.34-0.01-0.51-0.03-73.41-7.48-158.43-127.2-162.01-132.29-1.59-2.27-1.05-5.39 1.22-6.99 2.26-1.59 5.39-1.05 6.98 1.22 0.85 1.21 85.95 121.06 154.82 128.09 2.76 0.28 4.76 2.74 4.48 5.5-0.26 2.58-2.44 4.5-4.98 4.5zm150.61-131.31c-2.11 0-4.07-1.34-4.76-3.45-0.87-2.64 0.57-5.47 3.2-6.33 0.97-0.32 97.47-32.32 146.27-77.41 2.03-1.87 5.19-1.75 7.08 0.29 1.88 2.03 1.75 5.2-0.28 7.08-50.41 46.58-145.9 78.24-149.95 79.57-0.51 0.17-1.04 0.25-1.56 0.25zm-73.76-168.78c-1.01 0-2.02-0.31-2.91-0.93-2.25-1.61-2.78-4.74-1.17-7l118.55-166.25c1.61-2.26 4.74-2.77 7-1.18 2.25 1.61 2.77 4.74 1.17 7l-118.55 166.25c-0.98 1.38-2.53 2.11-4.09 2.11zm21.79 16.49c-1.85 0-3.63-1.03-4.5-2.81-1.23-2.48-0.2-5.49 2.29-6.71 54.95-26.97 58.71-99.43 58.74-100.16 0.12-2.76 2.43-4.97 5.22-4.79 2.77 0.12 4.92 2.45 4.8 5.21-0.13 3.22-3.98 79.12-64.34 108.75-0.72 0.34-1.47 0.51-2.21 0.51zm206.65 7.07c-2 0-3.88-1.19-4.66-3.16-0.02-0.03-3.03-7.11-17.79-29.33-9.35-14.07-5.26-32.19-0.93-51.37 3.69-16.34 7.88-34.87 4.46-53.46-7.63-41.58-4.48-70.62-4.34-71.83 0.31-2.76 2.82-4.7 5.54-4.42 2.76 0.31 4.73 2.79 4.42 5.54-0.02 0.29-3.1 28.89 4.25 68.9 3.78 20.61-0.65 40.2-4.55 57.48-4.01 17.77-7.47 33.12-0.5 43.61 15.37 23.12 18.45 30.41 18.75 31.17 1.03 2.57-0.22 5.48-2.8 6.51-0.6 0.24-1.23 0.36-1.85 0.36z" fill="#474747"/>
<path class="colorFFED83 svgShape" d="m1724.6 2240.3c27.88 26.94-18.31 51.61-91.18 78.02-72.93 26.41-240.32-56.89-295.81-58.9 0 0 37.64-45.19 27.68-122.4 90.58 16.51 239.19 41.78 295.61 42.58 56.49 0.74 57.09-16.71 87.91 16.85 0 0 6.35 22.46-24.2 43.85h-0.01z" fill="#f69"/>
<path class="color474747 svgShape" d="m1599 2328.4c-48.8 0.01-113.9-21.31-168.54-39.19-39.51-12.93-73.64-24.11-93.01-24.8-1.91-0.07-3.61-1.22-4.39-2.97-0.78-1.74-0.5-3.78 0.71-5.25 0.37-0.43 36.1-44.63 26.56-118.55-0.2-1.59 0.36-3.18 1.52-4.28 1.16-1.11 2.79-1.59 4.35-1.3 68.55 12.49 234.5 41.64 294.79 42.5 17.46 0.21 29.33-1.3 38.84-2.53 22.68-2.93 30.9-2.72 52.68 21 0.54 0.58 0.92 1.27 1.14 2.02 0.28 1.01 6.31 23.78-21.61 45.95 4.99 6.36 6.78 12.99 5.33 19.77-4.14 19.39-33.75 37.42-102.22 62.23-10.43 3.78-22.67 5.4-36.16 5.4h0.01zm-252.25-73.18c21.11 2.95 51.9 13.03 86.83 24.46 68.27 22.35 153.22 50.16 198.16 33.89 39.13-14.18 91.65-35.3 95.83-54.9 1.02-4.78-1.08-9.62-6.43-14.79-1.08-1.04-1.63-2.51-1.51-4 0.11-1.49 0.89-2.85 2.12-3.71 23.66-16.57 23.07-33.07 22.44-37.38-18.55-19.99-23.92-19.29-43.07-16.81-9.31 1.2-22.01 2.85-40.27 2.61-59.16-0.84-217.47-28.35-289.8-41.46 5.59 57.66-14.35 96.64-24.3 112.09zm161.52-194.11c-1.15 0-2.32-0.4-3.26-1.22-2.1-1.8-2.34-4.96-0.54-7.07 32.45-37.79 210.89-75.14 218.47-76.72 2.71-0.54 5.37 1.19 5.93 3.89 0.56 2.72-1.18 5.37-3.89 5.93-1.82 0.38-182.66 38.22-212.9 73.44-0.99 1.15-2.39 1.75-3.81 1.75z" fill="#474747"/>
<path class="color474747 svgShape" d="m1606.4 2016.1c-0.95 0-1.92-0.27-2.77-0.84-2.31-1.54-2.93-4.65-1.39-6.96 13.54-20.3 73.03-56.82 75.55-58.36 2.36-1.44 5.46-0.71 6.9 1.66 1.44 2.36 0.7 5.45-1.67 6.89-0.59 0.37-60.12 36.9-72.44 55.38-0.97 1.45-2.56 2.23-4.18 2.23zm-684.81-106.22c-0.826 0-1.661-0.21-2.432-0.63-0.888-0.5-88.912-49.41-111.71-61.63-2.438-1.31-3.359-4.35-2.05-6.79s4.345-3.35 6.789-2.05c22.859 12.25 110.95 61.21 111.84 61.7 2.422 1.34 3.294 4.4 1.949 6.82-0.917 1.65-2.628 2.58-4.387 2.58h1e-3z" fill="#474747"/>
<path class="color474747 svgShape" d="m921.59 1909.9c-1.756 0-3.46-0.92-4.377-2.56-22.183-39.62-67.777-50.13-68.234-50.23-2.699-0.6-4.41-3.28-3.813-5.98s3.271-4.41 5.967-3.82c2.047 0.45 50.395 11.5 74.827 55.13 1.355 2.42 0.493 5.47-1.926 6.82-0.774 0.44-1.616 0.64-2.445 0.64h1e-3zm443.7 232.16c-1.9 0-3.71-1.08-4.56-2.92-0.9-1.95-0.44-4.18 0.99-5.62 0.31-1.06 1.13-5.63-2.29-19.03-0.69-2.69 0.93-5.42 3.61-6.1 2.69-0.69 5.42 0.93 6.1 3.62 4.36 17.08 3.77 27.04-1.76 29.59-0.67 0.31-1.39 0.46-2.09 0.46zm-2.19-9.53-0.01 0.01s0-0.01 0.01-0.01zm0.01 0h-0.01 0.01zm0.02-0.01c-0.01 0-0.01 0-0.02 0.01 0.01-0.01 0.01-0.01 0.02-0.01zm0.01-0.01s-0.01 0-0.01 0.01l0.01-0.01zm0.02-0.01c-0.01 0-0.01 0.01-0.02 0.01 0.01 0 0.01-0.01 0.02-0.01zm0.01-0.01-0.01 0.01s0.01 0 0.01-0.01zm0.02 0h-0.02 0.02zm-123.33 131.94c-1.77 0-3.49-0.94-4.4-2.6-1.33-2.43-0.44-5.48 1.98-6.81 0.22-0.12 21.89-12.27 33.89-38.27 1.16-2.51 4.13-3.62 6.66-2.46 2.51 1.17 3.61 4.14 2.45 6.66-13.45 29.14-37.18 42.33-38.19 42.87-0.76 0.42-1.58 0.61-2.39 0.61z" fill="#474747"/>
<path class="color474747 svgShape" d="m1257.9 2249.9c-0.22 0-0.46-0.01-0.69-0.04-2.74-0.38-4.66-2.92-4.28-5.66 0.51-3.64 12.52-89.39 25.6-121.01 2.42-5.84 5.7-8.52 9.82-7.9 3.78 0.55 15.28 2.23 26.12 108.41 0.28 2.75-1.72 5.21-4.48 5.49-2.74 0.28-5.21-1.72-5.5-4.47-4.05-39.68-11.3-84.8-16.93-97.13-12.51 30.96-24.57 117.12-24.7 117.99-0.34 2.51-2.49 4.33-4.95 4.33l-0.01-0.01zm491.48-280.68c-2.09 0-4.05-1.33-4.75-3.42-0.88-2.63 0.53-5.47 3.15-6.35 1.09-0.37 27.11-9.01 62.56-13 2.73-0.34 5.23 1.67 5.54 4.43 0.31 2.75-1.67 5.23-4.42 5.54-34.33 3.85-60.23 12.45-60.48 12.53-0.53 0.18-1.07 0.27-1.6 0.27z" fill="#474747"/>
<path class="colorFFED83 svgShape" d="m1461.3 2090.9s26.78 26.6 27.32 39.42l-27.32-39.42z" fill="#f69"/>
<path class="color474747 svgShape" d="m1488.6 2135.4c-2.67 0-4.89-2.11-5.01-4.8-0.31-7.48-15.29-25.59-25.83-36.07-1.97-1.95-1.98-5.13-0.03-7.09 1.95-1.97 5.13-1.97 7.09-0.02 4.71 4.67 28.21 28.69 28.8 42.76 0.11 2.76-2.04 5.1-4.81 5.22h-0.21zm-682.98 218.48c-0.539 0-1.084-0.09-1.619-0.28-2.569-0.91-3.972-3.62-3.121-6.2 4.358-13.21 93.312-100.22 111.1-117.53 1.981-1.92 5.161-1.89 7.09 0.1s1.887 5.16-0.098 7.09c-50.363 49.01-105.53 105.44-108.58 113.5-0.764 2.02-2.716 3.32-4.775 3.32zm-33.738-13.87c-2.034 0-3.946-1.25-4.697-3.26-0.969-2.6 0.353-5.49 2.948-6.45 13.471-5.02 67.796-59.32 101.02-94.59 1.9-2.02 5.076-2.12 7.086-0.22 2.017 1.9 2.112 5.08 0.212 7.09-8.624 9.16-84.845 89.67-104.82 97.11-0.574 0.22-1.168 0.32-1.749 0.32zm952.75-94.66c-0.44 0-0.88-0.06-1.32-0.17l-22.26-6.04c-2.68-0.72-4.25-3.48-3.53-6.15s3.48-4.24 6.15-3.53l22.27 6.04c2.67 0.72 4.25 3.47 3.52 6.15-0.6 2.23-2.63 3.7-4.83 3.7zm6.37-726.27c-0.39 0-0.79-0.05-1.18-0.14-2.69-0.65-4.35-3.36-3.7-6.05l10.21-42.25c0.65-2.69 3.36-4.34 6.05-3.69s4.35 3.35 3.7 6.05l-10.21 42.24c-0.56 2.3-2.61 3.84-4.87 3.84zm-17.53 50.04c-0.56 0-1.12-0.09-1.68-0.29-2.61-0.93-3.97-3.8-3.04-6.4l10.88-30.54c0.93-2.61 3.79-3.98 6.4-3.04 2.61 0.93 3.97 3.79 3.04 6.4l-10.87 30.54c-0.74 2.05-2.67 3.33-4.73 3.33z" fill="#474747"/>
<path class="color7C7C7C svgShape" d="m1443.9 2213.2c-0.5 0-1.01-0.07-1.5-0.23-2.23-0.7-54.6-17.42-58.99-47.98-2.26-15.71 8.33-31.52 31.47-46.97 22.11-14.76 33.82-28.75 35.82-42.77 2.78-19.47-13.63-38.99-31-59.66-8.07-9.6-16.41-19.53-23.56-30.17-6.57-9.78-6.36-22.46 0.61-37.68 29.62-64.67 180.33-167.88 288.13-180.91 48.09-5.81 92.53-4.7 128.22-3.79 62.18 1.57 94.85 1.2 99.12-24.15 4.16-24.79 23.78-33.89 39.55-41.2 10.61-4.92 19.77-9.17 22.34-16.63 1.96-5.71 0.28-13.62-5.15-24.19-3.97-7.74-4.31-15.05-1-21.72 11.61-23.44 66.8-33.28 136.67-45.74 54.1-9.66 115.42-20.59 159.07-39.7 27.34-11.96 60.23-24.5 92.04-36.63 54.98-20.96 138.06-52.64 136.77-65.85-0.02-0.21-0.77-5.2-24.15-9.19-31.49-5.38-44.81-12.28-43.19-22.4 3.29-20.73 88.97-30.48 133.15-23.93 19.76 2.92 23.77 14.92 24.4 21.81 4.01 43.83-99.72 139.24-181.95 167.34-12.31 4.89-12.29 13.49-11.07 30.92 2.03 29.01 4.8 68.74-80.4 99.89-58.29 21.3-103.87 23.83-137.14 25.67-41.57 2.31-64.46 3.58-77.09 36.27-27.69 71.72-104.12 62.03-182.56 40.87-86.02-23.16-241.47 9.93-292.47 62.19-0.84 1.45-4.08 7.77-0.93 14.48 3.44 7.35 15.18 17.01 51.54 21.29 42.51 5.1 116.54 19.78 134.83 60.73 8.46 18.95 4.08 40.93-13.03 65.34-10.05 13.54-32.76 17.91-59.05 22.97-36.51 7.03-77.9 15-91.71 48.98-9.66 23.78-28.5 41.86-54.48 52.29-31.81 12.79-72.28 12.83-100.7 0.11-18.91-8.47-35.39-8.6-43.01-0.37-7.52 8.14-5.77 23.92 4.8 43.3 0.98 1.79 0.77 4-0.53 5.58-0.97 1.18-2.4 1.83-3.87 1.83zm324.14-440.87c-25.26 0-52.99 0.94-81.96 4.45-102.22 12.36-251.92 113.36-280.22 175.13-5.41 11.84-5.88 21.23-1.39 27.92 6.85 10.19 15.01 19.91 22.9 29.3 18.86 22.44 36.67 43.63 33.26 67.53-2.42 17.01-15.57 33.27-40.18 49.7-19.65 13.12-28.77 25.64-27.12 37.2 2.27 15.8 24.6 28.67 40.67 35.56-10-24.51-3.31-37.54 2.14-43.43 10.79-11.68 31.15-12.42 54.47-1.98 25.68 11.49 63.87 11.39 92.86-0.26 16.32-6.55 38.05-19.98 48.93-46.77 15.86-39.02 62.02-47.9 99.11-55.05 23.22-4.47 45.16-8.69 52.81-18.99 14.86-21.21 18.93-39.88 12.01-55.38-11.89-26.61-58.13-46.61-126.86-54.86-33-3.89-53.03-13.03-59.52-27.16-5.82-12.67 1.64-24 1.96-24.48 0.17-0.24 0.35-0.47 0.55-0.68 52.53-54.47 213.74-89.26 302.66-65.28 85.43 23.04 147.15 25.94 170.6-34.8 14.95-38.73 43.16-40.3 85.87-42.67 32.66-1.81 77.38-4.29 134.26-25.08 78.12-28.56 75.75-62.5 73.85-89.77-1.14-16.29-2.32-33.13 17.6-41.03 83.67-28.6 178.75-120.71 175.43-157.02-0.42-4.55-2.51-10.83-15.87-12.81-50.38-7.46-118.64 6.61-121.81 15.66 0.19 0 3.31 5.46 34.99 10.87 21.58 3.69 31.59 9.27 32.45 18.1 1.95 19.86-50.43 40.83-143.17 76.19-31.7 12.09-64.48 24.59-91.6 36.46-44.74 19.58-106.68 30.63-161.33 40.37-61.75 11.02-120.08 21.42-129.45 40.33-1.87 3.77-1.57 7.8 0.94 12.69 6.73 13.12 8.61 23.6 5.71 32.02-3.96 11.51-15.44 16.83-27.6 22.47-15.04 6.97-30.6 14.19-33.89 33.76-5.9 35.13-49.24 34.02-109.25 32.52-13.74-0.35-28.78-0.73-44.81-0.73z" fill="#7c7c7c"/>
<path class="colorF2F2F2 svgShape" d="m1454.6 2448.7c104.32 0 188.88-18.05 188.88-40.32s-84.56-40.32-188.88-40.32c-104.31 0-188.88 18.05-188.88 40.32s84.57 40.32 188.88 40.32z" fill="#f2f2f2"/>
<path class="color474747 svgShape" d="m1454.6 2453.7c-96.35 0-193.89-15.57-193.89-45.33s97.54-45.33 193.89-45.33c96.36 0 193.9 15.57 193.9 45.33s-97.54 45.33-193.9 45.33zm0-80.63c-113.92 0-183.86 20.56-183.86 35.3s69.94 35.3 183.86 35.3 183.87-20.56 183.87-35.3-69.95-35.3-183.87-35.3z" fill="#474747"/>
<path class="colorF2F2F2 svgShape" d="m1549.7 2249.6s-9.74 133.9-19.9 160.31c0 0-56.22 21.45-147.56 1.37-3.14-8.22-9.56-31.32-12.24-43.28-1.67-7.69-3.27-15.85-4.74-24.14-2.94-16.31-5.42-33.16-7.29-47.8-1.07-7.62-1.87-14.64-2.67-20.65-1.47-13.24-2.34-21.79-2.34-21.79s92.08-23.43 196.74-4.02z" fill="#f2f2f2"/>
<path class="color474747 svgShape" d="m1458.5 2425c-21.65 0-47.63-2.23-77.33-8.76-1.65-0.36-3-1.53-3.61-3.11-3.23-8.46-9.75-31.95-12.44-43.98-1.69-7.78-3.3-15.96-4.79-24.35-3.35-18.55-5.83-36.36-7.33-48.04-0.65-4.62-1.2-9.08-1.72-13.23l-0.95-7.4c-1.48-13.37-2.35-21.95-2.35-21.95-0.25-2.47 1.34-4.75 3.75-5.36 0.94-0.24 94.37-23.46 198.89-4.08 2.51 0.46 4.27 2.74 4.09 5.29-0.4 5.5-9.91 134.95-20.22 161.74-0.51 1.33-1.56 2.38-2.89 2.88-1.59 0.61-27.87 10.35-73.1 10.35zm-72.48-17.97c77.36 16.42 128.98 2.43 139.86-1.03 8.49-26.71 16.74-129.39 18.49-152.2-88.07-15.35-167.16-0.33-185.96 3.77 0.4 3.78 1.04 9.8 1.88 17.35l0.94 7.37c0.51 4.09 1.07 8.51 1.72 13.14 1.48 11.62 3.94 29.25 7.25 47.6 1.47 8.28 3.05 16.33 4.71 23.96 2.38 10.64 7.82 30.44 11.11 40.04z" fill="#474747"/>
<path class="colorF2F2F2 svgShape" d="m1370 2368c-17.38-6.21-50.67-22.79-52.61-58.82-1.87-35.57 23.73-36.1 37.91-33.76 0.8 6.01 1.6 13.03 2.67 20.65-36.77 14.91-11.5 36.24 7.29 47.8 1.47 8.29 3.07 16.45 4.74 24.13z" fill="#f2f2f2"/>
<path class="color474747 svgShape" d="m1370 2373c-0.57 0-1.14-0.09-1.69-0.29-16.1-5.76-53.78-23.47-55.92-63.28-0.77-14.5 2.69-25.29 10.28-32.08 9.68-8.67 23.53-8.54 33.44-6.9 2.18 0.36 3.87 2.1 4.16 4.29l0.95 7.48c0.51 4.1 1.06 8.5 1.71 13.14 0.32 2.27-0.95 4.48-3.08 5.34-6.86 2.78-15.15 7.35-15.65 13.28-0.55 6.66 8.08 15.99 23.68 25.6 1.22 0.75 2.06 1.99 2.31 3.39 1.47 8.27 3.05 16.33 4.71 23.95 0.39 1.78-0.22 3.63-1.59 4.83-0.93 0.82-2.11 1.25-3.31 1.25zm-24.07-93.4c-5.92 0-12.11 1.23-16.57 5.22-5.22 4.66-7.56 12.76-6.96 24.07 1.49 27.77 23.4 43.1 40.78 50.94-0.85-4.22-1.68-8.53-2.47-12.91-18.48-11.75-27.39-23.11-26.5-33.77 0.67-8.04 6.82-14.81 18.28-20.18-0.45-3.31-0.84-6.49-1.22-9.51l-0.46-3.6c-1.58-0.16-3.21-0.26-4.88-0.26zm102.78 121.5c-37.8 0-69.47-5.81-71.58-6.2-2.72-0.52-4.51-3.13-4-5.86 0.51-2.72 3.12-4.52 5.85-4 0.8 0.15 81.5 14.92 137.94-2.71 2.64-0.84 5.45 0.65 6.28 3.29 0.82 2.64-0.65 5.45-3.29 6.28-22.41 7-47.96 9.2-71.2 9.2zm2.97-129.68c-41.57 0-79.49-3.42-82.14-3.66-2.75-0.25-4.78-2.7-4.53-5.45 0.25-2.76 2.64-4.82 5.45-4.54 1.08 0.1 108.97 9.81 160.38-3.3 2.7-0.69 5.41 0.94 6.1 3.62 0.68 2.68-0.93 5.42-3.62 6.1-21.82 5.56-52.62 7.23-81.64 7.23z" fill="#474747"/>
<path class="color474747 svgShape" d="m1440.1 2423.2c-28.62 0-58.07-1.02-83.95-3.93-14.07-1.58-23.54-4.1-23.98-11.24-0.19-3.1-0.69-11.32 40.95-21.25 2.69-0.64 5.4 1.01 6.04 3.71 0.64 2.69-1.02 5.4-3.71 6.04-12.85 3.07-25.61 7.45-31.06 10.48 2.25 0.68 6.16 1.54 12.89 2.3 85.68 9.62 211.47-1.71 212.73-1.82 2.69-0.25 5.19 1.78 5.45 4.53 0.25 2.76-1.78 5.2-4.54 5.46-0.89 0.08-63.56 5.72-130.82 5.72z" fill="#474747"/>
<path class="colorF2F2F2 svgShape" d="m2123.4 1949.8-61.28 320.66-390.91 75.92s-21.45 9.42-13.27 26.14l372.35 107.85 513.55-163.73 93.58-476.13s-3.08-9.18-23.77-8.65l-490.25 117.94z" fill="#f2f2f2"/>
<path class="color474747 svgShape" d="m2030.3 2485.4c-0.47 0-0.94-0.06-1.4-0.2l-372.34-107.85c-1.36-0.39-2.49-1.34-3.11-2.61-2.72-5.55-3.11-11.06-1.17-16.37 3.94-10.75 16.39-16.33 16.92-16.56 0.34-0.15 0.69-0.26 1.06-0.33l387.59-75.27 60.64-317.33c0.36-1.94 1.83-3.47 3.74-3.93l490.25-117.94c0.35-0.09 0.69-0.14 1.05-0.14 23.75-0.59 28.21 10.77 28.65 12.07 0.28 0.82 0.33 1.7 0.17 2.56l-93.58 476.13c-0.35 1.8-1.65 3.25-3.4 3.81l-513.55 163.73c-0.5 0.16-1.01 0.23-1.52 0.23zm-368.64-117.01 368.57 106.76 509.28-162.37 92.63-471.31c-1.39-1.46-5.81-4.77-17.83-4.59l-486.58 117.06-60.67 317.49c-0.39 2.01-1.95 3.59-3.97 3.98l-390.31 75.79c-2.82 1.38-9.18 5.38-11.1 10.65-0.75 2.09-0.76 4.25-0.02 6.54z" fill="#474747"/>
<path class="color474747 svgShape" d="m2028 2446.8 34.12-176.3-390.91 75.92 356.79 100.38z" fill="#474747"/>
<path class="color474747 svgShape" d="m2028 2451.8c-0.45 0-0.91-0.06-1.36-0.18l-356.79-100.38c-2.24-0.63-3.75-2.72-3.65-5.04s1.77-4.27 4.05-4.71l390.92-75.92c1.6-0.32 3.31 0.2 4.5 1.38 1.18 1.17 1.69 2.86 1.38 4.5l-34.13 176.29c-0.26 1.38-1.09 2.58-2.29 3.31-0.79 0.5-1.71 0.75-2.63 0.75zm-335.1-104.5 331.22 93.19 31.67-163.66-362.89 70.47z" fill="#474747"/>
<path class="colorF2F2F2 svgShape" d="m2044.1 2448.7 102.66-484.47 490.67-123.7" fill="#f2f2f2"/>
<path class="color474747 svgShape" d="m2044.1 2453.7c-0.35 0-0.7-0.04-1.05-0.11-2.71-0.57-4.44-3.24-3.86-5.94l102.66-484.47c0.39-1.87 1.82-3.35 3.67-3.82l490.67-123.7c2.65-0.68 5.41 0.94 6.09 3.63 0.67 2.69-0.95 5.41-3.63 6.09l-487.64 122.94-102.02 481.4c-0.5 2.36-2.58 3.98-4.9 3.98h0.01z" fill="#474747"/>
</svg>
</svg>