<svg width="900" height="260" viewBox="0 0 900 260" fill="none" xmlns="http://www.w3.org/2000/svg">
<path d="M883.213 160.965C878.662 160.965 874.727 159.336 871.407 156.077C868.148 152.756 866.518 148.821 866.518 144.27C866.518 139.597 868.148 135.631 871.407 132.372C874.727 129.051 878.662 127.391 883.213 127.391C887.886 127.391 891.852 129.051 895.111 132.372C898.37 135.631 900 139.597 900 144.27C900 148.821 898.37 152.756 895.111 156.077C891.852 159.336 887.886 160.965 883.213 160.965Z" fill="black"/>
<path d="M817.111 80.8117C822.4 80.8117 827.565 81.8878 832.607 84.04C837.649 86.1922 841.8 89.6049 845.059 94.2782C848.318 98.89 849.947 104.978 849.947 112.541V158.752H821.815V117.153C821.815 111.742 820.524 107.683 817.941 104.978C815.359 102.211 811.977 100.827 807.795 100.827C805.028 100.827 802.415 101.565 799.955 103.041C797.557 104.455 795.589 106.484 794.052 109.128C792.576 111.711 791.838 114.693 791.838 118.075V158.752H763.799V83.0254H791.838V94.186C792.576 92.1568 794.114 90.1276 796.45 88.0984C798.848 86.0077 801.831 84.2859 805.397 82.9331C809.025 81.5189 812.93 80.8117 817.111 80.8117Z" fill="black"/>
<path d="M710.098 160.965C701.797 160.965 694.418 159.274 687.961 155.892C681.566 152.449 676.524 147.745 672.835 141.78C669.207 135.754 667.393 128.867 667.393 121.119C667.393 113.371 669.207 106.484 672.835 100.458C676.524 94.3705 681.566 89.5742 687.961 86.0692C694.418 82.5642 701.797 80.8117 710.098 80.8117C718.399 80.8117 725.717 82.5642 732.05 86.0692C738.384 89.5742 743.334 94.3705 746.9 100.458C750.467 106.484 752.25 113.371 752.25 121.119C752.25 128.867 750.467 135.754 746.9 141.78C743.334 147.745 738.384 152.449 732.05 155.892C725.717 159.274 718.399 160.965 710.098 160.965ZM710.098 137.906C713.296 137.906 716.063 137.199 718.399 135.785C720.736 134.37 722.55 132.372 723.841 129.789C725.133 127.207 725.778 124.286 725.778 121.027C725.778 117.706 725.133 114.755 723.841 112.172C722.55 109.589 720.736 107.56 718.399 106.084C716.063 104.609 713.296 103.871 710.098 103.871C706.901 103.871 704.103 104.609 701.705 106.084C699.368 107.56 697.523 109.589 696.17 112.172C694.879 114.755 694.233 117.706 694.233 121.027C694.233 124.286 694.879 127.207 696.17 129.789C697.523 132.372 699.368 134.37 701.705 135.785C704.103 137.199 706.901 137.906 710.098 137.906Z" fill="black"/>
<path d="M626.03 158.751V83.0253H654.07V158.751H626.03ZM640.419 67.4374C635.992 67.4374 632.241 65.9001 629.167 62.8255C626.092 59.6895 624.555 55.9693 624.555 51.6649C624.555 47.3606 626.092 43.6403 629.167 40.5043C632.303 37.3068 636.054 35.708 640.419 35.708C643.309 35.708 645.954 36.4459 648.352 37.9217C650.75 39.336 652.687 41.2422 654.163 43.6404C655.638 46.0385 656.376 48.7134 656.376 51.6649C656.376 55.9693 654.808 59.6895 651.672 62.8255C648.536 65.9001 644.785 67.4374 640.419 67.4374Z" fill="black"/>
<path d="M577.822 80.8117C583.11 80.8117 588.276 81.8878 593.318 84.04C598.36 86.1922 602.511 89.6049 605.77 94.2782C609.029 98.89 610.658 104.978 610.658 112.541V158.752H582.526V117.153C582.526 111.742 581.235 107.683 578.652 104.978C576.07 102.211 572.688 100.827 568.506 100.827C565.739 100.827 563.126 101.565 560.666 103.041C558.268 104.455 556.3 106.484 554.763 109.128C553.287 111.711 552.549 114.693 552.549 118.075V158.752H524.51V83.0254H552.549V94.186C553.287 92.1568 554.825 90.1276 557.161 88.0984C559.559 86.0077 562.542 84.2859 566.108 82.9331C569.736 81.5189 573.641 80.8117 577.822 80.8117Z" fill="black"/>
<path d="M482.182 158.752V146.484C481.628 147.714 480.214 149.497 477.939 151.834C475.725 154.17 472.774 156.292 469.084 158.198C465.395 160.043 461.09 160.965 456.171 160.965C448.792 160.965 442.335 159.182 436.801 155.615C431.267 151.987 426.963 147.16 423.888 141.134C420.814 135.047 419.276 128.313 419.276 120.935C419.276 113.556 420.814 106.853 423.888 100.827C426.963 94.7394 431.267 89.8816 436.801 86.2537C442.335 82.6257 448.792 80.8117 456.171 80.8117C460.906 80.8117 465.056 81.5803 468.623 83.1176C472.189 84.5934 475.079 86.3766 477.293 88.4673C479.507 90.4965 481.044 92.372 481.905 94.0938V83.0254H509.76V158.752H482.182ZM446.763 120.935C446.763 124.378 447.562 127.483 449.161 130.25C450.76 132.956 452.881 135.077 455.525 136.615C458.231 138.152 461.213 138.921 464.472 138.921C467.854 138.921 470.837 138.152 473.419 136.615C476.002 135.077 478.031 132.956 479.507 130.25C481.044 127.483 481.813 124.378 481.813 120.935C481.813 117.491 481.044 114.417 479.507 111.711C478.031 108.944 476.002 106.792 473.419 105.254C470.837 103.656 467.854 102.856 464.472 102.856C461.213 102.856 458.231 103.656 455.525 105.254C452.881 106.792 450.76 108.944 449.161 111.711C447.562 114.417 446.763 117.491 446.763 120.935Z" fill="black"/>
<path d="M348.364 197.122H320.601V83.0254H348.641V94.0938C349.502 92.372 351.131 90.4965 353.529 88.4673C355.989 86.3766 359.094 84.5934 362.845 83.1176C366.658 81.5803 370.962 80.8117 375.758 80.8117C383.137 80.8117 389.44 82.6257 394.667 86.2537C399.955 89.8816 404.014 94.7394 406.842 100.827C409.671 106.853 411.085 113.556 411.085 120.935C411.085 128.313 409.578 135.047 406.565 141.134C403.552 147.16 399.31 151.988 393.837 155.615C388.426 159.182 382.031 160.965 374.652 160.965C369.363 160.965 364.844 160.043 361.093 158.198C357.403 156.292 354.483 154.201 352.33 151.926C350.24 149.589 348.918 147.775 348.364 146.484V197.122ZM383.691 120.935C383.691 117.491 382.922 114.417 381.385 111.711C379.848 108.944 377.757 106.792 375.113 105.254C372.53 103.656 369.609 102.856 366.35 102.856C362.968 102.856 359.925 103.656 357.219 105.254C354.575 106.792 352.484 108.944 350.947 111.711C349.41 114.417 348.641 117.491 348.641 120.935C348.641 124.378 349.41 127.483 350.947 130.25C352.484 132.956 354.575 135.077 357.219 136.615C359.925 138.152 362.968 138.921 366.35 138.921C369.609 138.921 372.53 138.152 375.113 136.615C377.757 135.077 379.848 132.956 381.385 130.25C382.922 127.483 383.691 124.378 383.691 120.935Z" fill="black"/>
<path d="M277.241 80.8117C282.96 80.8117 288.002 82.0108 292.368 84.4089C296.734 86.7456 300.147 90.3736 302.606 95.2928C305.128 100.212 306.388 106.546 306.388 114.294V158.752H278.809V118.536C278.809 113.248 278.01 108.975 276.411 105.716C274.813 102.457 271.646 100.827 266.911 100.827C264.082 100.827 261.592 101.565 259.44 103.041C257.288 104.516 255.627 106.576 254.459 109.221C253.291 111.803 252.707 114.908 252.707 118.536V158.752H226.973V118.536C226.973 113.248 226.081 108.975 224.298 105.716C222.576 102.457 219.501 100.827 215.074 100.827C212.245 100.827 209.755 101.565 207.603 103.041C205.451 104.455 203.79 106.484 202.622 109.128C201.515 111.711 200.962 114.847 200.962 118.536V158.752H173.106V83.0254H200.962V93.817C201.7 91.9108 203.299 89.9739 205.758 88.0062C208.279 85.977 211.385 84.2859 215.074 82.9331C218.763 81.5189 222.668 80.8117 226.788 80.8117C231.277 80.8117 235.028 81.4881 238.041 82.8409C241.054 84.1322 243.514 85.8847 245.42 88.0984C247.388 90.3121 248.956 92.7102 250.124 95.2928C250.985 93.0792 252.676 90.8655 255.197 88.6518C257.78 86.3766 260.977 84.5012 264.789 83.0254C268.663 81.5496 272.814 80.8117 277.241 80.8117Z" fill="black"/>
<path d="M118.207 160.965C109.906 160.965 102.527 159.274 96.0702 155.892C89.6751 152.449 84.6329 147.745 80.9434 141.78C77.3154 135.754 75.5015 128.867 75.5015 121.119C75.5015 113.371 77.3154 106.484 80.9434 100.458C84.6329 94.3705 89.6751 89.5742 96.0702 86.0692C102.527 82.5642 109.906 80.8117 118.207 80.8117C126.508 80.8117 133.826 82.5642 140.159 86.0692C146.493 89.5742 151.443 94.3705 155.009 100.458C158.576 106.484 160.359 113.371 160.359 121.119C160.359 128.867 158.576 135.754 155.009 141.78C151.443 147.745 146.493 152.449 140.159 155.892C133.826 159.274 126.508 160.965 118.207 160.965ZM118.207 137.906C121.404 137.906 124.172 137.199 126.508 135.785C128.845 134.37 130.659 132.372 131.95 129.789C133.241 127.207 133.887 124.286 133.887 121.027C133.887 117.706 133.241 114.755 131.95 112.172C130.659 109.589 128.845 107.56 126.508 106.084C124.172 104.609 121.404 103.871 118.207 103.871C115.009 103.871 112.212 104.609 109.813 106.084C107.477 107.56 105.632 109.589 104.279 112.172C102.988 114.755 102.342 117.706 102.342 121.027C102.342 124.286 102.988 127.207 104.279 129.789C105.632 132.372 107.477 134.37 109.813 135.785C112.212 137.199 115.009 137.906 118.207 137.906Z" fill="black"/>
<path d="M43.9968 138.921C47.5018 138.921 50.3918 138.337 52.667 137.168C54.9422 135.938 56.4795 134.955 57.2788 134.217L70.0997 153.217C69.1158 154.017 67.4249 155.062 65.0267 156.353C62.6286 157.583 59.6155 158.659 55.9875 159.582C52.4211 160.504 48.3319 160.965 43.7201 160.965C35.0499 160.965 27.425 159.336 20.8454 156.077C14.2659 152.756 9.13141 148.083 5.44195 142.057C1.81398 136.031 0 128.959 0 120.842C0 112.664 1.81398 105.593 5.44195 99.6279C9.13141 93.6633 14.2659 89.0515 20.8454 85.7925C27.425 82.472 35.0499 80.8117 43.7201 80.8117C48.2704 80.8117 52.3288 81.3036 55.8953 82.2875C59.5233 83.2099 62.5671 84.2859 65.0267 85.5158C67.4863 86.6841 69.2081 87.6987 70.1919 88.5596L57.0944 107.745C56.6639 107.314 55.8645 106.699 54.6962 105.9C53.5894 105.101 52.1443 104.393 50.3611 103.779C48.5779 103.164 46.4564 102.856 43.9968 102.856C40.9837 102.856 38.1551 103.625 35.511 105.162C32.9284 106.699 30.8377 108.821 29.239 111.526C27.6402 114.232 26.8408 117.337 26.8408 120.842C26.8408 124.347 27.6402 127.483 29.239 130.25C30.8377 132.956 32.9284 135.077 35.511 136.615C38.1551 138.152 40.9837 138.921 43.9968 138.921Z" fill="black"/>
<circle cx="495.745" cy="50.5893" r="16.5893" fill="#004AAD"/>
<path d="M320.602 186.621L320.603 185.294H348.364V222.454H320.603L320.603 219.8L320.602 186.621Z" fill="black"/>
<path d="M579.849 223.782V190.338H587.589V217.475H604.358V223.782H579.849Z" fill="black"/>
<path d="M533.14 223.782L548.047 190.338H555.691L570.645 223.782H562.523L550.292 194.255H553.35L541.071 223.782H533.14ZM540.594 216.615L542.648 210.738H559.848L561.95 216.615H540.594Z" fill="black"/>
<path d="M511.092 224.355C508.448 224.355 506.012 223.941 503.782 223.113C501.584 222.253 499.657 221.042 498.001 219.482C496.377 217.921 495.103 216.089 494.179 213.987C493.287 211.885 492.841 209.576 492.841 207.06C492.841 204.543 493.287 202.234 494.179 200.132C495.103 198.03 496.392 196.198 498.049 194.638C499.705 193.077 501.648 191.882 503.878 191.054C506.107 190.194 508.56 189.764 511.235 189.764C514.197 189.764 516.857 190.258 519.214 191.245C521.603 192.233 523.61 193.666 525.234 195.545L520.265 200.132C519.055 198.858 517.733 197.918 516.3 197.313C514.866 196.676 513.306 196.358 511.617 196.358C509.993 196.358 508.512 196.612 507.174 197.122C505.836 197.632 504.674 198.364 503.686 199.32C502.731 200.275 501.982 201.406 501.441 202.712C500.931 204.018 500.677 205.467 500.677 207.06C500.677 208.62 500.931 210.054 501.441 211.36C501.982 212.665 502.731 213.812 503.686 214.8C504.674 215.755 505.821 216.488 507.126 216.997C508.464 217.507 509.929 217.762 511.522 217.762C513.051 217.762 514.532 217.523 515.965 217.045C517.43 216.535 518.848 215.691 520.217 214.513L524.613 220.103C522.797 221.472 520.679 222.523 518.259 223.256C515.87 223.989 513.481 224.355 511.092 224.355ZM517.542 219.099V206.534H524.613V220.103L517.542 219.099Z" fill="black"/>
<path d="M464.275 203.811H480.376V209.831H464.275V203.811ZM464.849 217.571H483.052V223.782H457.156V190.338H482.431V196.549H464.849V217.571Z" fill="black"/>
<path d="M422.542 223.782V190.338H430.282V217.475H447.052V223.782H422.542Z" fill="black"/>
</svg>