<svg width="900" height="900" viewBox="0 0 900 900" fill="none" xmlns="http://www.w3.org/2000/svg">
<path d="M883.213 478.504C878.662 478.504 874.727 476.874 871.407 473.615C868.148 470.295 866.518 466.359 866.518 461.809C866.518 457.136 868.148 453.169 871.407 449.91C874.727 446.59 878.662 444.93 883.213 444.93C887.886 444.93 891.852 446.59 895.111 449.91C898.37 453.169 900 457.136 900 461.809C900 466.359 898.37 470.295 895.111 473.615C891.852 476.874 887.886 478.504 883.213 478.504Z" fill="black"/>
<path d="M817.111 398.35C822.4 398.35 827.565 399.426 832.607 401.579C837.649 403.731 841.8 407.143 845.059 411.817C848.318 416.429 849.947 422.516 849.947 430.08V476.29H821.815V434.691C821.815 429.28 820.524 425.222 817.941 422.516C815.359 419.749 811.977 418.366 807.795 418.366C805.028 418.366 802.415 419.103 799.955 420.579C797.557 421.994 795.589 424.023 794.052 426.667C792.576 429.249 791.838 432.232 791.838 435.614V476.29H763.799V400.564H791.838V411.725C792.576 409.695 794.114 407.666 796.45 405.637C798.848 403.546 801.831 401.825 805.397 400.472C809.025 399.057 812.93 398.35 817.111 398.35Z" fill="black"/>
<path d="M710.098 478.504C701.797 478.504 694.418 476.813 687.961 473.431C681.566 469.987 676.524 465.283 672.835 459.319C669.207 453.292 667.393 446.405 667.393 438.658C667.393 430.91 669.207 424.023 672.835 417.997C676.524 411.909 681.566 407.113 687.961 403.608C694.418 400.103 701.797 398.35 710.098 398.35C718.399 398.35 725.717 400.103 732.05 403.608C738.384 407.113 743.334 411.909 746.9 417.997C750.467 424.023 752.25 430.91 752.25 438.658C752.25 446.405 750.467 453.292 746.9 459.319C743.334 465.283 738.384 469.987 732.05 473.431C725.717 476.813 718.399 478.504 710.098 478.504ZM710.098 455.445C713.296 455.445 716.063 454.737 718.399 453.323C720.736 451.909 722.55 449.91 723.841 447.328C725.133 444.745 725.778 441.824 725.778 438.565C725.778 435.245 725.133 432.293 723.841 429.711C722.55 427.128 720.736 425.099 718.399 423.623C716.063 422.147 713.296 421.409 710.098 421.409C706.901 421.409 704.103 422.147 701.705 423.623C699.368 425.099 697.523 427.128 696.17 429.711C694.879 432.293 694.233 435.245 694.233 438.565C694.233 441.824 694.879 444.745 696.17 447.328C697.523 449.91 699.368 451.909 701.705 453.323C704.103 454.737 706.901 455.445 710.098 455.445Z" fill="black"/>
<path d="M626.03 476.29V400.564H654.07V476.29H626.03ZM640.419 384.976C635.992 384.976 632.241 383.439 629.167 380.364C626.092 377.228 624.555 373.508 624.555 369.203C624.555 364.899 626.092 361.179 629.167 358.043C632.303 354.845 636.054 353.247 640.419 353.247C643.309 353.247 645.954 353.984 648.352 355.46C650.75 356.875 652.687 358.781 654.163 361.179C655.638 363.577 656.376 366.252 656.376 369.203C656.376 373.508 654.808 377.228 651.672 380.364C648.536 383.439 644.785 384.976 640.419 384.976Z" fill="black"/>
<path d="M577.822 398.35C583.11 398.35 588.276 399.426 593.318 401.579C598.36 403.731 602.511 407.143 605.77 411.817C609.029 416.429 610.658 422.516 610.658 430.08V476.29H582.526V434.691C582.526 429.28 581.235 425.222 578.652 422.516C576.07 419.749 572.688 418.366 568.506 418.366C565.739 418.366 563.126 419.103 560.666 420.579C558.268 421.994 556.3 424.023 554.763 426.667C553.287 429.249 552.549 432.232 552.549 435.614V476.29H524.51V400.564H552.549V411.725C553.287 409.695 554.825 407.666 557.161 405.637C559.559 403.546 562.542 401.825 566.108 400.472C569.736 399.057 573.641 398.35 577.822 398.35Z" fill="black"/>
<path d="M482.182 476.29V464.023C481.628 465.252 480.214 467.036 477.939 469.372C475.725 471.709 472.774 473.83 469.084 475.737C465.395 477.581 461.09 478.504 456.171 478.504C448.792 478.504 442.335 476.721 436.801 473.154C431.267 469.526 426.963 464.699 423.888 458.673C420.814 452.585 419.276 445.852 419.276 438.473C419.276 431.094 420.814 424.392 423.888 418.366C426.963 412.278 431.267 407.42 436.801 403.792C442.335 400.164 448.792 398.35 456.171 398.35C460.906 398.35 465.056 399.119 468.623 400.656C472.189 402.132 475.079 403.915 477.293 406.006C479.507 408.035 481.044 409.911 481.905 411.632V400.564H509.76V476.29H482.182ZM446.763 438.473C446.763 441.917 447.562 445.022 449.161 447.789C450.76 450.495 452.881 452.616 455.525 454.153C458.231 455.691 461.213 456.459 464.472 456.459C467.854 456.459 470.837 455.691 473.419 454.153C476.002 452.616 478.031 450.495 479.507 447.789C481.044 445.022 481.813 441.917 481.813 438.473C481.813 435.03 481.044 431.955 479.507 429.249C478.031 426.482 476.002 424.33 473.419 422.793C470.837 421.194 467.854 420.395 464.472 420.395C461.213 420.395 458.231 421.194 455.525 422.793C452.881 424.33 450.76 426.482 449.161 429.249C447.562 431.955 446.763 435.03 446.763 438.473Z" fill="black"/>
<path d="M348.364 514.66H320.601V400.564H348.641V411.632C349.502 409.911 351.131 408.035 353.529 406.006C355.989 403.915 359.094 402.132 362.845 400.656C366.658 399.119 370.962 398.35 375.758 398.35C383.137 398.35 389.44 400.164 394.667 403.792C399.955 407.42 404.014 412.278 406.842 418.366C409.671 424.392 411.085 431.094 411.085 438.473C411.085 445.852 409.578 452.585 406.565 458.673C403.552 464.699 399.31 469.526 393.837 473.154C388.426 476.721 382.031 478.504 374.652 478.504C369.363 478.504 364.844 477.581 361.093 475.737C357.403 473.83 354.483 471.74 352.33 469.465C350.24 467.128 348.918 465.314 348.364 464.023V514.66ZM383.691 438.473C383.691 435.03 382.922 431.955 381.385 429.249C379.848 426.482 377.757 424.33 375.113 422.793C372.53 421.194 369.609 420.395 366.35 420.395C362.968 420.395 359.925 421.194 357.219 422.793C354.575 424.33 352.484 426.482 350.947 429.249C349.41 431.955 348.641 435.03 348.641 438.473C348.641 441.917 349.41 445.022 350.947 447.789C352.484 450.495 354.575 452.616 357.219 454.153C359.925 455.691 362.968 456.459 366.35 456.459C369.609 456.459 372.53 455.691 375.113 454.153C377.757 452.616 379.848 450.495 381.385 447.789C382.922 445.022 383.691 441.917 383.691 438.473Z" fill="black"/>
<path d="M277.241 398.35C282.96 398.35 288.002 399.549 292.368 401.948C296.734 404.284 300.147 407.912 302.606 412.831C305.128 417.751 306.388 424.084 306.388 431.832V476.29H278.809V436.075C278.809 430.787 278.01 426.513 276.411 423.254C274.813 419.995 271.646 418.366 266.911 418.366C264.082 418.366 261.592 419.103 259.44 420.579C257.288 422.055 255.627 424.115 254.459 426.759C253.291 429.342 252.707 432.447 252.707 436.075V476.29H226.973V436.075C226.973 430.787 226.081 426.513 224.298 423.254C222.576 419.995 219.501 418.366 215.074 418.366C212.245 418.366 209.755 419.103 207.603 420.579C205.451 421.994 203.79 424.023 202.622 426.667C201.515 429.249 200.962 432.386 200.962 436.075V476.29H173.106V400.564H200.962V411.356C201.7 409.449 203.299 407.512 205.758 405.545C208.279 403.516 211.385 401.825 215.074 400.472C218.763 399.057 222.668 398.35 226.788 398.35C231.277 398.35 235.028 399.027 238.041 400.379C241.054 401.671 243.514 403.423 245.42 405.637C247.388 407.851 248.956 410.249 250.124 412.831C250.985 410.618 252.676 408.404 255.197 406.19C257.78 403.915 260.977 402.04 264.789 400.564C268.663 399.088 272.814 398.35 277.241 398.35Z" fill="black"/>
<path d="M118.207 478.504C109.906 478.504 102.527 476.813 96.0702 473.431C89.6751 469.987 84.6329 465.283 80.9434 459.319C77.3154 453.292 75.5015 446.405 75.5015 438.658C75.5015 430.91 77.3154 424.023 80.9434 417.997C84.6329 411.909 89.6751 407.113 96.0702 403.608C102.527 400.103 109.906 398.35 118.207 398.35C126.508 398.35 133.826 400.103 140.159 403.608C146.493 407.113 151.443 411.909 155.009 417.997C158.576 424.023 160.359 430.91 160.359 438.658C160.359 446.405 158.576 453.292 155.009 459.319C151.443 465.283 146.493 469.987 140.159 473.431C133.826 476.813 126.508 478.504 118.207 478.504ZM118.207 455.445C121.404 455.445 124.172 454.737 126.508 453.323C128.845 451.909 130.659 449.91 131.95 447.328C133.241 444.745 133.887 441.824 133.887 438.565C133.887 435.245 133.241 432.293 131.95 429.711C130.659 427.128 128.845 425.099 126.508 423.623C124.172 422.147 121.404 421.409 118.207 421.409C115.009 421.409 112.212 422.147 109.813 423.623C107.477 425.099 105.632 427.128 104.279 429.711C102.988 432.293 102.342 435.245 102.342 438.565C102.342 441.824 102.988 444.745 104.279 447.328C105.632 449.91 107.477 451.909 109.813 453.323C112.212 454.737 115.009 455.445 118.207 455.445Z" fill="black"/>
<path d="M43.9968 456.459C47.5018 456.459 50.3918 455.875 52.667 454.707C54.9422 453.477 56.4795 452.493 57.2788 451.755L70.0997 470.756C69.1158 471.555 67.4249 472.601 65.0267 473.892C62.6286 475.122 59.6155 476.198 55.9875 477.12C52.4211 478.043 48.3319 478.504 43.7201 478.504C35.0499 478.504 27.425 476.874 20.8454 473.615C14.2659 470.295 9.13141 465.621 5.44195 459.595C1.81398 453.569 0 446.498 0 438.381C0 430.203 1.81398 423.131 5.44195 417.167C9.13141 411.202 14.2659 406.59 20.8454 403.331C27.425 400.011 35.0499 398.35 43.7201 398.35C48.2704 398.35 52.3288 398.842 55.8953 399.826C59.5233 400.748 62.5671 401.825 65.0267 403.054C67.4863 404.223 69.2081 405.237 70.1919 406.098L57.0944 425.283C56.6639 424.853 55.8645 424.238 54.6962 423.439C53.5894 422.639 52.1443 421.932 50.3611 421.317C48.5779 420.702 46.4564 420.395 43.9968 420.395C40.9837 420.395 38.1551 421.163 35.511 422.701C32.9284 424.238 30.8377 426.359 29.239 429.065C27.6402 431.771 26.8408 434.876 26.8408 438.381C26.8408 441.886 27.6402 445.022 29.239 447.789C30.8377 450.495 32.9284 452.616 35.511 454.153C38.1551 455.691 40.9837 456.459 43.9968 456.459Z" fill="black"/>
<circle cx="495.745" cy="368.128" r="16.5893" fill="#004AAD"/>
<path d="M320.602 504.16L320.603 502.833H348.364V539.993H320.603L320.603 537.339L320.602 504.16Z" fill="black"/>
<path d="M579.849 541.32V507.876H587.589V535.014H604.358V541.32H579.849Z" fill="black"/>
<path d="M533.14 541.32L548.047 507.876H555.691L570.645 541.32H562.523L550.292 511.794H553.35L541.071 541.32H533.14ZM540.594 534.154L542.648 528.277H559.848L561.95 534.154H540.594Z" fill="black"/>
<path d="M511.092 541.894C508.448 541.894 506.012 541.479 503.782 540.651C501.584 539.791 499.657 538.581 498.001 537.02C496.377 535.46 495.103 533.628 494.179 531.526C493.287 529.424 492.841 527.114 492.841 524.598C492.841 522.082 493.287 519.773 494.179 517.67C495.103 515.568 496.392 513.737 498.049 512.176C499.705 510.615 501.648 509.421 503.878 508.593C506.107 507.733 508.56 507.303 511.235 507.303C514.197 507.303 516.857 507.797 519.214 508.784C521.603 509.771 523.61 511.205 525.234 513.084L520.265 517.67C519.055 516.396 517.733 515.457 516.3 514.852C514.866 514.215 513.306 513.896 511.617 513.896C509.993 513.896 508.512 514.151 507.174 514.661C505.836 515.17 504.674 515.903 503.686 516.858C502.731 517.814 501.982 518.945 501.441 520.25C500.931 521.556 500.677 523.006 500.677 524.598C500.677 526.159 500.931 527.592 501.441 528.898C501.982 530.204 502.731 531.351 503.686 532.338C504.674 533.294 505.821 534.026 507.126 534.536C508.464 535.045 509.929 535.3 511.522 535.3C513.051 535.3 514.532 535.061 515.965 534.584C517.43 534.074 518.848 533.23 520.217 532.051L524.613 537.641C522.797 539.011 520.679 540.062 518.259 540.795C515.87 541.527 513.481 541.894 511.092 541.894ZM517.542 536.638V524.073H524.613V537.641L517.542 536.638Z" fill="black"/>
<path d="M464.275 521.349H480.376V527.369H464.275V521.349ZM464.849 535.109H483.052V541.32H457.156V507.876H482.431V514.087H464.849V535.109Z" fill="black"/>
<path d="M422.542 541.32V507.876H430.282V535.014H447.052V541.32H422.542Z" fill="black"/>
</svg>
